<?xml version="1.0" encoding="UTF-8"?>
<!DOCTYPE svg PUBLIC "-//W3C//DTD SVG 1.1//EN" "http://www.w3.org/Graphics/SVG/1.1/DTD/svg11.dtd">
<!-- Creator: CorelDRAW X8 -->
<svg xmlns="http://www.w3.org/2000/svg" xml:space="preserve" version="1.1" style="-webkit-filter: drop-shadow(1px 1px 2px rgba(0,0,0,0.4));filter: drop-shadow(1px 1px 2px rgba(0,0,0,0.4));shape-rendering:geometricPrecision; text-rendering:geometricPrecision; image-rendering:optimizeQuality; fill-rule:evenodd; clip-rule:evenodd"
viewBox="0 0 6350 7154"
 xmlns:xlink="http://www.w3.org/1999/xlink">
 <defs>
  <style type="text/css">
   <![CDATA[
    .fil124 {fill:#EFEFEF}
    .fil11 {fill:#5180C0}
    .fil118 {fill:#5280C0}
    .fil117 {fill:#5281C0}
    .fil116 {fill:#5381C0}
    .fil115 {fill:#5382C0}
    .fil114 {fill:#5482C0}
    .fil113 {fill:#5582C0}
    .fil112 {fill:#5583C1}
    .fil111 {fill:#5683C1}
    .fil110 {fill:#5784C1}
    .fil109 {fill:#5884C1}
    .fil108 {fill:#5885C1}
    .fil107 {fill:#5985C1}
    .fil106 {fill:#5A85C1}
    .fil105 {fill:#5A86C1}
    .fil104 {fill:#5B86C1}
    .fil103 {fill:#5B87C1}
    .fil102 {fill:#5C87C1}
    .fil101 {fill:#5D87C1}
    .fil100 {fill:#5D87C2}
    .fil99 {fill:#5D88C2}
    .fil98 {fill:#5E88C2}
    .fil97 {fill:#5F89C2}
    .fil96 {fill:#6089C2}
    .fil95 {fill:#608AC2}
    .fil94 {fill:#618AC2}
    .fil93 {fill:#628BC2}
    .fil92 {fill:#638BC2}
    .fil91 {fill:#638CC2}
    .fil90 {fill:#648CC2}
    .fil89 {fill:#648CC3}
    .fil88 {fill:#658CC3}
    .fil87 {fill:#658DC3}
    .fil86 {fill:#668DC3}
    .fil85 {fill:#678EC3}
    .fil84 {fill:#688EC3}
    .fil83 {fill:#688FC3}
    .fil82 {fill:#698FC3}
    .fil81 {fill:#6A90C3}
    .fil80 {fill:#6B90C3}
    .fil79 {fill:#6B91C3}
    .fil78 {fill:#6C91C3}
    .fil77 {fill:#6C91C4}
    .fil76 {fill:#6D91C4}
    .fil75 {fill:#6D92C4}
    .fil74 {fill:#6E92C4}
    .fil73 {fill:#6F93C4}
    .fil72 {fill:#7093C4}
    .fil71 {fill:#7094C4}
    .fil70 {fill:#7194C4}
    .fil69 {fill:#7295C4}
    .fil68 {fill:#7395C4}
    .fil67 {fill:#7396C4}
    .fil66 {fill:#7496C4}
    .fil65 {fill:#7496C5}
    .fil64 {fill:#7596C5}
    .fil63 {fill:#7597C5}
    .fil62 {fill:#7697C5}
    .fil61 {fill:#7798C5}
    .fil60 {fill:#7898C5}
    .fil59 {fill:#7899C5}
    .fil58 {fill:#7999C5}
    .fil57 {fill:#7A9AC5}
    .fil56 {fill:#7B9AC5}
    .fil55 {fill:#7B9BC5}
    .fil54 {fill:#7C9BC5}
    .fil53 {fill:#7C9BC6}
    .fil52 {fill:#7D9BC6}
    .fil51 {fill:#7D9CC6}
    .fil50 {fill:#7E9CC6}
    .fil49 {fill:#7F9DC6}
    .fil48 {fill:#809DC6}
    .fil47 {fill:#809EC6}
    .fil46 {fill:#819EC6}
    .fil45 {fill:#829FC6}
    .fil44 {fill:#839FC6}
    .fil43 {fill:#83A0C6}
    .fil42 {fill:#84A0C6}
    .fil41 {fill:#84A0C7}
    .fil40 {fill:#85A0C7}
    .fil39 {fill:#85A1C7}
    .fil38 {fill:#86A1C7}
    .fil37 {fill:#87A2C7}
    .fil36 {fill:#88A2C7}
    .fil35 {fill:#88A3C7}
    .fil34 {fill:#89A3C7}
    .fil33 {fill:#8AA4C7}
    .fil32 {fill:#8BA4C7}
    .fil31 {fill:#8BA5C7}
    .fil30 {fill:#8BA5C8}
    .fil29 {fill:#8CA5C8}
    .fil28 {fill:#8DA5C8}
    .fil27 {fill:#8DA6C8}
    .fil26 {fill:#8EA6C8}
    .fil25 {fill:#8EA7C8}
    .fil24 {fill:#8FA7C8}
    .fil23 {fill:#90A7C8}
    .fil22 {fill:#90A8C8}
    .fil21 {fill:#91A8C8}
    .fil20 {fill:#92A9C8}
    .fil19 {fill:#93A9C8}
    .fil18 {fill:#93AAC9}
    .fil17 {fill:#94AAC9}
    .fil16 {fill:#95AAC9}
    .fil15 {fill:#95ABC9}
    .fil14 {fill:#96ABC9}
    .fil13 {fill:#96ACC9}
    .fil12 {fill:#97ACC9}
    .fil126 {fill:#FEFEFE;fill-rule:nonzero}
    .fil129 {fill:#FAB07E;fill-rule:nonzero}
    .fil143 {fill:#F69368;fill-rule:nonzero}
    .fil142 {fill:#EF4E49;fill-rule:nonzero}
    .fil9 {fill:#EFEFEF;fill-rule:nonzero}
    .fil133 {fill:#E9AA7F;fill-rule:nonzero}
    .fil148 {fill:#EDEDEB;fill-rule:nonzero}
    .fil125 {fill:#E4A17B;fill-rule:nonzero}
    .fil131 {fill:#D48263;fill-rule:nonzero}
    .fil147 {fill:#C2C4C4;fill-rule:nonzero}
    .fil130 {fill:#B9D4DB;fill-rule:nonzero}
    .fil141 {fill:#832F30;fill-rule:nonzero}
    .fil144 {fill:#ACC7CF;fill-rule:nonzero}
    .fil128 {fill:#6A422D;fill-rule:nonzero}
    .fil127 {fill:#65372C;fill-rule:nonzero}
    .fil119 {fill:#97D8E9;fill-rule:nonzero}
    .fil151 {fill:#919496;fill-rule:nonzero}
    .fil132 {fill:#54362C;fill-rule:nonzero}
    .fil150 {fill:#7B7F81;fill-rule:nonzero}
    .fil149 {fill:#646869;fill-rule:nonzero}
    .fil134 {fill:#372829;fill-rule:nonzero}
    .fil145 {fill:#332629;fill-rule:nonzero}
    .fil136 {fill:#648A95;fill-rule:nonzero}
    .fil146 {fill:#608F9F;fill-rule:nonzero}
    .fil123 {fill:#3A3C3E;fill-rule:nonzero}
    .fil137 {fill:#292A2B;fill-rule:nonzero}
    .fil122 {fill:#007EC3;fill-rule:nonzero}
    .fil135 {fill:black;fill-rule:nonzero}
    .fil121 {fill:#000066;fill-rule:nonzero}
    .fil152 {fill:#1A1A1A;fill-rule:nonzero}
    .fil10 {fill:#212121;fill-rule:nonzero}
    .fil120 {fill:#6666FF;fill-rule:nonzero}
    .fil153 {fill:#CCCCCC;fill-rule:nonzero}
    .fil7 {fill:#CECCCC;fill-rule:nonzero}
    .fil5 {fill:#F1CCCE;fill-rule:nonzero}
    .fil4 {fill:#FADFDF;fill-rule:nonzero}
    .fil2 {fill:#FBD7D7;fill-rule:nonzero}
    .fil1 {fill:#FBE8E8;fill-rule:nonzero}
    .fil6 {fill:#FBF4E9;fill-rule:nonzero}
    .fil3 {fill:#FBFBFB;fill-rule:nonzero}
    .fil0 {fill:#FFF4F5;fill-rule:nonzero}
    .fil8 {fill:#FFFBFB;fill-rule:nonzero}
    .fil140 {fill:url(#id1)}
    .fil139 {fill:url(#id2)}
    .fil138 {fill:url(#id3)}
   ]]>
  </style>
      <clipPath id="id0">
       <path d="M2497 4831l170 1834c169,30 343,46 521,46 237,0 468,-28 689,-81l-32 -1385c0,0 -129,491 -168,632 -39,141 -118,436 -118,436 0,0 -418,-581 -531,-730 -114,-150 -531,-752 -531,-752z"/>
      </clipPath>
  <linearGradient id="id1" gradientUnits="userSpaceOnUse" x1="3973.86" y1="2391.71" x2="4039.42" y2="2954.25">
   <stop offset="0" style="stop-opacity:1; stop-color:#ABAEAF"/>
   <stop offset="0.0117647" style="stop-opacity:1; stop-color:#ABAEAF"/>
   <stop offset="1" style="stop-opacity:1; stop-color:#2E3030"/>
  </linearGradient>
  <linearGradient id="id2" gradientUnits="userSpaceOnUse" x1="4864.2" y1="2716.97" x2="4894.16" y2="2141.38">
   <stop offset="0" style="stop-opacity:1; stop-color:#2E3030"/>
   <stop offset="0.988235" style="stop-opacity:1; stop-color:#ABAEAF"/>
   <stop offset="1" style="stop-opacity:1; stop-color:#ABAEAF"/>
  </linearGradient>
  <linearGradient id="id3" gradientUnits="userSpaceOnUse" xlink:href="#id2" x1="3050.38" y1="2709.6" x2="3082.3" y2="2107.78">
  </linearGradient>
 </defs>
 <g id="Camada_x0020_1">
  <metadata id="CorelCorpID_0Corel-Layer"/>
  <g id="_1520464733408">
   <g>
    <path class="fil0" d="M4176 1137l-2013 0c-1107,398 -1899,1458 -1899,2703 0,1587 1286,2873 2871,2873 3391,0 3737,-4629 1041,-5576z"/>
    <path class="fil1" d="M1516 6212l3303 0c87,-61 169,-127 245,-197l-3804 0c81,70 166,136 256,197z"/>
    <path class="fil2" d="M4819 6212l-3303 0c461,316 1018,501 1619,501 687,0 1248,-190 1684,-501z"/>
    <path class="fil1" d="M4672 3144l1108 0 0 -387c-180,-497 -489,-944 -928,-1266l-180 0 0 1653z"/>
    <path class="fil3" d="M4724 3095l1004 0 0 -472c-175,-419 -446,-795 -812,-1082l-192 0 0 1554z"/>
    <path class="fil0" d="M5115 1714c-123,14 -211,48 -211,89 0,53 144,95 322,95 21,0 41,0 60,-2 -54,-63 -111,-123 -171,-182z"/>
    <polygon class="fil0" points="4792,2117 5181,2117 5181,2087 4792,2087 "/>
    <polygon class="fil0" points="4792,2180 5181,2180 5181,2150 4792,2150 "/>
    <polygon class="fil0" points="4792,2242 5181,2242 5181,2213 4792,2213 "/>
    <polygon class="fil0" points="4792,2305 5181,2305 5181,2276 4792,2276 "/>
    <polygon class="fil0" points="4792,2368 5181,2368 5181,2339 4792,2339 "/>
    <polygon class="fil0" points="4792,2431 5181,2431 5181,2402 4792,2402 "/>
    <polygon class="fil0" points="4792,2563 5181,2563 5181,2533 4792,2533 "/>
    <polygon class="fil0" points="4792,2626 5181,2626 5181,2596 4792,2596 "/>
    <polygon class="fil0" points="4792,2689 5181,2689 5181,2659 4792,2659 "/>
    <polygon class="fil0" points="4792,2752 5181,2752 5181,2722 4792,2722 "/>
    <polygon class="fil0" points="4792,2815 5181,2815 5181,2785 4792,2785 "/>
    <polygon class="fil0" points="4792,2877 5181,2877 5181,2848 4792,2848 "/>
    <path class="fil0" d="M5280 2117l174 0c-7,-10 -13,-20 -20,-30l-154 0 0 30z"/>
    <path class="fil0" d="M5280 2180l216 0c-6,-10 -13,-20 -20,-30l-196 0 0 30z"/>
    <path class="fil0" d="M5280 2242l255 0c-6,-9 -12,-19 -18,-29l-237 0 0 29z"/>
    <path class="fil0" d="M5280 2305l293 0c-6,-10 -12,-19 -18,-29l-275 0 0 29z"/>
    <polygon class="fil0" points="5280,2368 5607,2368 5591,2339 5280,2339 "/>
    <polygon class="fil0" points="5280,2431 5640,2431 5625,2402 5280,2402 "/>
    <polygon class="fil4" points="5376,3007 5482,2946 5589,3007 5589,2676 5376,2676 "/>
    <path class="fil1" d="M5482 2528c-81,0 -148,67 -148,148 0,82 67,149 148,149 82,0 148,-67 148,-149 0,-81 -66,-148 -148,-148z"/>
    <path class="fil4" d="M5482 2570c-59,0 -106,48 -106,106 0,59 47,107 106,107 59,0 107,-48 107,-107 0,-58 -48,-106 -107,-106z"/>
    <path class="fil4" d="M1516 6212l1002 0 0 -1716 -1733 0 0 994c198,283 446,527 731,722z"/>
    <polygon class="fil4" points="4122,6212 4543,6212 4543,4496 4122,4496 "/>
    <polygon class="fil3" points="4470,4317 4475,4325 4480,4318 4482,4298 4472,4297 "/>
    <polygon class="fil5" points="4467,4306 4485,4308 4492,4281 4466,4278 "/>
    <path class="fil4" d="M4546 3658l-3 0c-14,-2 -26,8 -28,22l-47 445c-1,13 -10,155 -4,160 3,2 24,5 28,2 5,-3 29,-147 30,-156l47 -445c2,-14 -8,-27 -23,-28z"/>
    <path class="fil1" d="M4515 3680l-47 445c-1,13 -10,155 -4,160 1,1 8,3 14,3l67 -630 -2 0c-14,-2 -26,8 -28,22z"/>
    <path class="fil2" d="M4568 3696l-57 -6c-3,0 -6,1 -6,4 0,2 -2,3 2,4l60 6c3,1 6,-1 6,-3 0,-3 -2,-5 -5,-5z"/>
    <path class="fil2" d="M4500 3705c-1,7 -16,169 -14,174 1,4 8,-3 9,-11 1,-7 -2,-12 -2,-12l15 -154 3 -12c0,0 -9,-3 -11,15z"/>
    <path class="fil2" d="M4313 3710c-1,-3 -4,-4 -7,-3l-30 11c-2,0 -3,3 -3,6l11 29c1,2 4,4 6,3l30 -11c2,-1 4,-4 3,-6l-10 -29z"/>
    <polygon class="fil6" points="4514,4331 4515,4272 4475,4286 "/>
    <polygon class="fil7" points="4514,4331 4515,4313 4501,4318 "/>
    <polygon class="fil1" points="4284,3752 4475,4286 4515,4272 4323,3738 "/>
    <polygon class="fil3" points="4280,3742 4284,3752 4323,3738 4319,3728 "/>
    <polygon class="fil4" points="4303,3745 4495,4279 4515,4272 4323,3738 "/>
    <polygon class="fil4" points="4322,4351 4618,4351 4618,3970 4322,3970 "/>
    <polygon class="fil2" points="4470,4351 4618,4351 4618,3970 4470,3970 "/>
    <path class="fil2" d="M1030 3256c-36,0 -66,30 -66,66l0 694c0,37 30,66 66,66l839 0 -498 -826 -341 0z"/>
    <path class="fil4" d="M2124 3256l-753 0 498 826 255 0c37,0 66,-29 66,-66l0 -124 0 0 0 -570c0,-36 -29,-66 -66,-66z"/>
    <path class="fil4" d="M1573 3774c-62,0 -112,50 -112,113l0 364c0,62 50,74 112,74 63,0 113,-12 113,-74l0 -364c0,-63 -50,-113 -113,-113z"/>
    <path class="fil2" d="M1827 4220l-500 0c-26,0 -47,21 -47,47l0 84 595 0 0 -83c0,-27 -21,-48 -48,-48z"/>
    <polygon class="fil1" points="542,4496 4786,4496 4786,4351 542,4351 "/>
    <polygon class="fil4" points="809,2661 1298,2661 1298,2483 809,2483 "/>
    <polygon class="fil4" points="1460,2375 1705,2375 1705,1535 1460,1535 "/>
    <polygon class="fil8" points="1495,1631 1495,2034 1670,2034 1670,1631 1583,1686 "/>
    <path class="fil0" d="M1583 2089c-36,0 -65,29 -65,65 0,35 29,64 65,64 35,0 64,-29 64,-64 0,-36 -29,-65 -64,-65z"/>
    <path class="fil2" d="M1583 2101c-29,0 -53,24 -53,53 0,28 24,52 53,52 28,0 52,-24 52,-52 0,-29 -24,-53 -52,-53z"/>
    <path class="fil2" d="M1216 2375l244 0 0 -840 -38 0c-72,53 -140,110 -206,169l0 671z"/>
    <path class="fil8" d="M1251 1673l0 361 175 0 0 -403 -88 55 -59 -37c-10,8 -19,16 -28,24z"/>
    <path class="fil0" d="M1338 2089c-36,0 -65,29 -65,65 0,35 29,64 65,64 36,0 65,-29 65,-64 0,-36 -29,-65 -65,-65z"/>
    <path class="fil2" d="M1338 2101c-29,0 -52,24 -52,53 0,28 23,52 52,52 29,0 52,-24 52,-52 0,-29 -23,-53 -52,-53z"/>
    <path class="fil4" d="M972 2375l244 0 0 -671c-86,78 -168,161 -244,248l0 423z"/>
    <path class="fil8" d="M1006 1913l0 121 175 0 0 -298c-61,56 -119,116 -175,177z"/>
    <path class="fil0" d="M1094 2089c-36,0 -65,29 -65,65 0,35 29,64 65,64 36,0 65,-29 65,-64 0,-36 -29,-65 -65,-65z"/>
    <path class="fil2" d="M1094 2101c-29,0 -53,24 -53,53 0,28 24,52 53,52 29,0 52,-24 52,-52 0,-29 -23,-53 -52,-53z"/>
    <path class="fil2" d="M727 2375l245 0 0 -423c-89,102 -171,210 -245,324l0 99z"/>
    <path class="fil8" d="M903 2034l34 0 0 -41c-11,13 -23,27 -34,41z"/>
    <path class="fil0" d="M791 2182c10,21 33,36 58,36 36,0 65,-29 65,-64 0,-33 -24,-60 -55,-64 -23,30 -46,60 -68,92z"/>
    <path class="fil2" d="M800 2170c6,21 26,36 49,36 29,0 53,-24 53,-52 0,-29 -23,-52 -52,-53 -17,23 -34,46 -50,69z"/>
    <path class="fil8" d="M604 2483l2296 0 0 -108 -2234 0c-21,35 -42,71 -62,108z"/>
    <path class="fil2" d="M5142 3637l819 0c-2,-35 -5,-71 -8,-107l-811 0 0 107z"/>
    <path class="fil8" d="M5961 3637l-727 0 0 2206c534,-592 777,-1409 727,-2206z"/>
    <path class="fil1" d="M5337 4124l619 0c10,-124 14,-249 10,-374l-629 0 0 374z"/>
    <path class="fil1" d="M5337 4570l548 0c28,-124 49,-249 63,-375l-611 0 0 375z"/>
    <path class="fil1" d="M5337 5015l409 0c49,-122 89,-247 122,-374l-531 0 0 374z"/>
    <path class="fil1" d="M5337 5461l184 0c74,-120 139,-245 195,-375l-379 0 0 375z"/>
    <path class="fil1" d="M5476 5532l-139 0 0 191c49,-62 95,-126 139,-191z"/>
   </g>
   <g>
    <path class="fil9" d="M3843 5076l322 108 683 1020 -460 256 -257 -418 144 53 59 388c-142,60 -290,109 -443,146l-48 -1553z"/>
    <path class="fil10" d="M4138 6068c-20,133 -43,256 -46,506l46 -16 0 -112 40 -327 -40 -51z"/>
    <g>
     <g style="clip-path:url(#id0)">
      <polygon class="fil11" points="3877,4831 2497,4831 2497,6711 3877,6711 "/>
      <polygon id="1" class="fil12" points="3205,6396 3197,6396 3197,6414 3205,6414 "/>
      <path id="2" class="fil12" d="M3204 6399l0 12 -6 0 0 -12 6 0zm4 -9l-14 0 0 31 14 0 0 -31z"/>
      <path id="3" class="fil13" d="M3207 6393l0 24 -11 0 0 -24 11 0zm4 -9l-19 0 0 43 19 0 0 -43z"/>
      <path id="4" class="fil14" d="M3209 6387l0 37 -16 0 0 -37 16 0zm5 -9l-25 0 0 55 25 0 0 -55z"/>
      <path id="5" class="fil14" d="M3212 6381l0 49 -22 0 0 -49 22 0zm4 -10l-30 0 0 68 30 0 0 -68z"/>
      <path id="6" class="fil14" d="M3215 6374l0 62 -28 0 0 -62 28 0zm4 -9l-36 0 0 80 36 0 0 -80z"/>
      <path id="7" class="fil15" d="M3218 6368l0 74 -33 0 0 -74 33 0zm4 -9l-41 0 0 92 41 0 0 -92z"/>
      <path id="8" class="fil15" d="M3220 6362l0 86 -38 0 0 -86 38 0zm5 -9l-47 0 0 104 47 0 0 -104z"/>
      <path id="9" class="fil15" d="M3223 6356l0 98 -44 0 0 -98 44 0zm4 -9l-52 0 0 117 52 0 0 -117z"/>
      <path id="10" class="fil16" d="M3226 6350l0 111 -50 0 0 -111 50 0zm4 -9l-58 0 0 129 58 0 0 -129z"/>
      <path id="11" class="fil17" d="M3229 6344l0 123 -55 0 0 -123 55 0zm4 -10l-63 0 0 142 63 0 0 -142z"/>
      <path id="12" class="fil17" d="M3231 6338l0 135 -60 0 0 -135 60 0zm5 -10l-69 0 0 154 69 0 0 -154z"/>
      <path id="13" class="fil17" d="M3234 6331l0 148 -66 0 0 -148 66 0zm4 -9l-74 0 0 166 74 0 0 -166z"/>
      <path id="14" class="fil18" d="M3237 6325l0 160 -72 0 0 -160 72 0zm4 -9l-80 0 0 178 80 0 0 -178z"/>
      <path id="15" class="fil18" d="M3240 6319l0 172 -77 0 0 -172 77 0zm4 -9l-85 0 0 191 85 0 0 -191z"/>
      <path id="16" class="fil19" d="M3242 6313l0 184 -82 0 0 -184 82 0zm5 -9l-91 0 0 203 91 0 0 -203z"/>
      <path id="17" class="fil19" d="M3245 6307l0 197 -88 0 0 -197 88 0zm4 -9l-96 0 0 215 96 0 0 -215z"/>
      <path id="18" class="fil20" d="M3248 6301l0 209 -94 0 0 -209 94 0zm4 -10l-102 0 0 228 102 0 0 -228z"/>
      <path id="19" class="fil20" d="M3251 6294l0 222 -99 0 0 -222 99 0zm4 -9l-107 0 0 240 107 0 0 -240z"/>
      <path id="20" class="fil20" d="M3253 6288l0 234 -104 0 0 -234 104 0zm5 -9l-113 0 0 252 113 0 0 -252z"/>
      <path id="21" class="fil20" d="M3256 6282l0 246 -110 0 0 -246 110 0zm4 -9l-118 0 0 264 118 0 0 -264z"/>
      <path id="22" class="fil21" d="M3259 6276l0 258 -116 0 0 -258 116 0zm4 -9l-124 0 0 277 124 0 0 -277z"/>
      <path id="23" class="fil21" d="M3262 6270l0 270 -121 0 0 -270 121 0zm4 -9l-129 0 0 289 129 0 0 -289z"/>
      <path id="24" class="fil21" d="M3264 6264l0 283 -126 0 0 -283 126 0zm5 -9l-135 0 0 301 135 0 0 -301z"/>
      <path id="25" class="fil22" d="M3267 6258l0 295 -132 0 0 -295 132 0zm4 -10l-140 0 0 314 140 0 0 -314z"/>
      <path id="26" class="fil22" d="M3270 6251l0 308 -138 0 0 -308 138 0zm4 -9l-146 0 0 326 146 0 0 -326z"/>
      <path id="27" class="fil22" d="M3273 6245l0 320 -143 0 0 -320 143 0zm4 -9l-151 0 0 338 151 0 0 -338z"/>
      <path id="28" class="fil23" d="M3275 6239l0 332 -148 0 0 -332 148 0zm5 -9l-157 0 0 350 157 0 0 -350z"/>
      <path id="29" class="fil24" d="M3278 6233l0 344 -154 0 0 -344 154 0zm4 -9l-162 0 0 363 162 0 0 -363z"/>
      <path id="30" class="fil24" d="M3281 6227l0 357 -160 0 0 -357 160 0zm4 -9l-168 0 0 375 168 0 0 -375z"/>
      <path id="31" class="fil24" d="M3284 6221l0 369 -165 0 0 -369 165 0zm4 -10l-173 0 0 388 173 0 0 -388z"/>
      <path id="32" class="fil25" d="M3286 6215l0 381 -170 0 0 -381 170 0zm5 -10l-179 0 0 400 179 0 0 -400z"/>
      <path id="33" class="fil26" d="M3289 6208l0 394 -176 0 0 -394 176 0zm4 -9l-184 0 0 412 184 0 0 -412z"/>
      <path id="34" class="fil26" d="M3292 6202l0 406 -182 0 0 -406 182 0zm4 -9l-190 0 0 424 190 0 0 -424z"/>
      <path id="35" class="fil26" d="M3295 6196l0 418 -187 0 0 -418 187 0zm4 -9l-195 0 0 437 195 0 0 -437z"/>
      <path id="36" class="fil27" d="M3297 6190l0 430 -192 0 0 -430 192 0zm5 -9l-201 0 0 449 201 0 0 -449z"/>
      <path id="37" class="fil27" d="M3300 6184l0 443 -198 0 0 -443 198 0zm4 -9l-206 0 0 461 206 0 0 -461z"/>
      <path id="38" class="fil27" d="M3303 6178l0 455 -204 0 0 -455 204 0zm4 -10l-212 0 0 474 212 0 0 -474z"/>
      <path id="39" class="fil28" d="M3306 6172l0 467 -209 0 0 -467 209 0zm4 -10l-217 0 0 486 217 0 0 -486z"/>
      <path id="40" class="fil29" d="M3308 6165l0 480 -214 0 0 -480 214 0zm5 -9l-223 0 0 498 223 0 0 -498z"/>
      <path id="41" class="fil29" d="M3311 6159l0 492 -220 0 0 -492 220 0zm4 -9l-228 0 0 510 228 0 0 -510z"/>
      <path id="42" class="fil29" d="M3314 6153l0 504 -226 0 0 -504 226 0zm4 -9l-234 0 0 523 234 0 0 -523z"/>
      <path id="43" class="fil30" d="M3317 6147l0 516 -231 0 0 -516 231 0zm4 -9l-239 0 0 535 239 0 0 -535z"/>
      <path id="44" class="fil31" d="M3319 6141l0 529 -236 0 0 -529 236 0zm5 -9l-245 0 0 547 245 0 0 -547z"/>
      <path id="45" class="fil32" d="M3322 6135l0 541 -242 0 0 -541 242 0zm4 -10l-250 0 0 560 250 0 0 -560z"/>
      <path id="46" class="fil32" d="M3325 6128l0 554 -248 0 0 -554 248 0zm4 -9l-256 0 0 572 256 0 0 -572z"/>
      <path id="47" class="fil33" d="M3328 6122l0 566 -253 0 0 -566 253 0zm4 -9l-261 0 0 584 261 0 0 -584z"/>
      <path id="48" class="fil33" d="M3330 6116l0 578 -258 0 0 -578 258 0zm5 -9l-267 0 0 596 267 0 0 -596z"/>
      <path id="49" class="fil33" d="M3333 6110l0 590 -264 0 0 -590 264 0zm4 -9l-272 0 0 609 272 0 0 -609z"/>
      <path id="50" class="fil33" d="M3336 6104l0 603 -270 0 0 -603 270 0zm4 -9l-278 0 0 621 278 0 0 -621z"/>
      <path id="51" class="fil34" d="M3339 6098l0 615 -275 0 0 -615 275 0zm4 -10l-283 0 0 634 283 0 0 -634z"/>
      <path id="52" class="fil34" d="M3341 6092l0 627 -280 0 0 -627 280 0zm5 -10l-289 0 0 646 289 0 0 -646z"/>
      <path id="53" class="fil34" d="M3344 6085l0 640 -286 0 0 -640 286 0zm4 -9l-294 0 0 658 294 0 0 -658z"/>
      <path id="54" class="fil35" d="M3347 6079l0 652 -292 0 0 -652 292 0zm4 -9l-300 0 0 670 300 0 0 -670z"/>
      <path id="55" class="fil35" d="M3350 6073l0 664 -297 0 0 -664 297 0zm4 -9l-305 0 0 683 305 0 0 -683z"/>
      <path id="56" class="fil35" d="M3352 6067l0 676 -302 0 0 -676 302 0zm5 -9l-311 0 0 695 311 0 0 -695z"/>
      <path id="57" class="fil36" d="M3355 6061l0 689 -308 0 0 -689 308 0zm4 -9l-316 0 0 707 316 0 0 -707z"/>
      <path id="58" class="fil37" d="M3358 6055l0 701 -314 0 0 -701 314 0zm4 -10l-322 0 0 720 322 0 0 -720z"/>
      <path id="59" class="fil37" d="M3361 6049l0 713 -319 0 0 -713 319 0zm4 -10l-327 0 0 732 327 0 0 -732z"/>
      <path id="60" class="fil37" d="M3363 6042l0 726 -324 0 0 -726 324 0zm4 -9l-332 0 0 744 332 0 0 -744z"/>
      <path id="61" class="fil37" d="M3366 6036l0 738 -330 0 0 -738 330 0zm4 -9l-338 0 0 756 338 0 0 -756z"/>
      <path id="62" class="fil38" d="M3369 6030l0 750 -336 0 0 -750 336 0zm4 -9l-344 0 0 769 344 0 0 -769z"/>
      <path id="63" class="fil38" d="M3372 6024l0 762 -341 0 0 -762 341 0zm4 -9l-349 0 0 781 349 0 0 -781z"/>
      <path id="64" class="fil38" d="M3374 6018l0 775 -346 0 0 -775 346 0zm4 -9l-354 0 0 793 354 0 0 -793z"/>
      <path id="65" class="fil39" d="M3377 6012l0 787 -352 0 0 -787 352 0zm4 -10l-360 0 0 806 360 0 0 -806z"/>
      <path id="66" class="fil39" d="M3380 6005l0 800 -358 0 0 -800 358 0zm4 -9l-366 0 0 818 366 0 0 -818z"/>
      <path id="67" class="fil39" d="M3383 5999l0 812 -363 0 0 -812 363 0zm4 -9l-371 0 0 830 371 0 0 -830z"/>
      <path id="68" class="fil40" d="M3385 5993l0 824 -368 0 0 -824 368 0zm4 -9l-376 0 0 842 376 0 0 -842z"/>
      <path id="69" class="fil41" d="M3388 5987l0 836 -374 0 0 -836 374 0zm4 -9l-382 0 0 855 382 0 0 -855z"/>
      <path id="70" class="fil41" d="M3391 5981l0 849 -379 0 0 -849 379 0zm4 -9l-388 0 0 867 388 0 0 -867z"/>
      <path id="71" class="fil41" d="M3394 5975l0 861 -385 0 0 -861 385 0zm4 -10l-393 0 0 880 393 0 0 -880z"/>
      <path id="72" class="fil42" d="M3396 5969l0 873 -390 0 0 -873 390 0zm4 -10l-398 0 0 892 398 0 0 -892z"/>
      <path id="73" class="fil43" d="M3399 5962l0 886 -396 0 0 -886 396 0zm4 -9l-404 0 0 904 404 0 0 -904z"/>
      <path id="74" class="fil44" d="M3402 5956l0 898 -401 0 0 -898 401 0zm4 -9l-410 0 0 916 410 0 0 -916z"/>
      <path id="75" class="fil44" d="M3405 5950l0 910 -407 0 0 -910 407 0zm4 -9l-415 0 0 929 415 0 0 -929z"/>
      <path id="76" class="fil45" d="M3407 5944l0 922 -412 0 0 -922 412 0zm4 -9l-420 0 0 941 420 0 0 -941z"/>
      <path id="77" class="fil45" d="M3410 5938l0 935 -418 0 0 -935 418 0zm4 -9l-426 0 0 953 426 0 0 -953z"/>
      <path id="78" class="fil45" d="M3413 5932l0 947 -423 0 0 -947 423 0zm4 -10l-432 0 0 966 432 0 0 -966z"/>
      <path id="79" class="fil45" d="M3416 5926l0 959 -429 0 0 -959 429 0zm4 -10l-437 0 0 978 437 0 0 -978z"/>
      <path id="80" class="fil46" d="M3418 5919l0 972 -434 0 0 -972 434 0zm4 -9l-442 0 0 990 442 0 0 -990z"/>
      <path id="81" class="fil46" d="M3421 5913l0 984 -440 0 0 -984 440 0zm4 -9l-448 0 0 1002 448 0 0 -1002z"/>
      <path id="82" class="fil46" d="M3424 5907l0 996 -445 0 0 -996 445 0zm4 -9l-454 0 0 1015 454 0 0 -1015z"/>
      <path id="83" class="fil47" d="M3427 5901l0 1008 -451 0 0 -1008 451 0zm4 -9l-459 0 0 1027 459 0 0 -1027z"/>
      <path id="84" class="fil47" d="M3429 5895l0 1021 -456 0 0 -1021 456 0zm4 -9l-464 0 0 1039 464 0 0 -1039z"/>
      <path id="85" class="fil47" d="M3432 5889l0 1033 -462 0 0 -1033 462 0zm4 -10l-470 0 0 1052 470 0 0 -1052z"/>
      <path id="86" class="fil48" d="M3435 5882l0 1046 -467 0 0 -1046 467 0zm4 -9l-476 0 0 1064 476 0 0 -1064z"/>
      <path id="87" class="fil49" d="M3438 5876l0 1058 -473 0 0 -1058 473 0zm4 -9l-481 0 0 1076 481 0 0 -1076z"/>
      <path id="88" class="fil49" d="M3440 5870l0 1070 -478 0 0 -1070 478 0zm4 -9l-486 0 0 1088 486 0 0 -1088z"/>
      <path id="89" class="fil49" d="M3443 5864l0 1082 -484 0 0 -1082 484 0zm4 -9l-492 0 0 1101 492 0 0 -1101z"/>
      <path id="90" class="fil49" d="M3446 5858l0 1095 -489 0 0 -1095 489 0zm4 -9l-498 0 0 1113 498 0 0 -1113z"/>
      <path id="91" class="fil50" d="M3449 5852l0 1107 -495 0 0 -1107 495 0zm4 -10l-503 0 0 1126 503 0 0 -1126z"/>
      <path id="92" class="fil50" d="M3451 5846l0 1119 -500 0 0 -1119 500 0zm4 -10l-508 0 0 1138 508 0 0 -1138z"/>
      <path id="93" class="fil50" d="M3454 5839l0 1132 -506 0 0 -1132 506 0zm4 -9l-514 0 0 1150 514 0 0 -1150z"/>
      <path id="94" class="fil51" d="M3457 5833l0 1144 -511 0 0 -1144 511 0zm4 -9l-520 0 0 1162 520 0 0 -1162z"/>
      <path id="95" class="fil51" d="M3460 5827l0 1156 -517 0 0 -1156 517 0zm4 -9l-525 0 0 1174 525 0 0 -1174z"/>
      <path id="96" class="fil51" d="M3462 5821l0 1168 -522 0 0 -1168 522 0zm4 -9l-530 0 0 1187 530 0 0 -1187z"/>
      <path id="97" class="fil52" d="M3465 5815l0 1181 -528 0 0 -1181 528 0zm4 -9l-536 0 0 1199 536 0 0 -1199z"/>
      <path id="98" class="fil53" d="M3468 5809l0 1193 -533 0 0 -1193 533 0zm4 -10l-542 0 0 1212 542 0 0 -1212z"/>
      <path id="99" class="fil53" d="M3471 5803l0 1205 -539 0 0 -1205 539 0zm4 -10l-547 0 0 1224 547 0 0 -1224z"/>
      <path id="100" class="fil53" d="M3473 5796l0 1218 -544 0 0 -1218 544 0zm4 -9l-552 0 0 1236 552 0 0 -1236z"/>
      <path id="101" class="fil54" d="M3476 5790l0 1230 -550 0 0 -1230 550 0zm4 -9l-558 0 0 1248 558 0 0 -1248z"/>
      <path id="102" class="fil55" d="M3479 5784l0 1242 -555 0 0 -1242 555 0zm4 -9l-564 0 0 1261 564 0 0 -1261z"/>
      <path id="103" class="fil56" d="M3482 5778l0 1254 -561 0 0 -1254 561 0zm4 -9l-569 0 0 1273 569 0 0 -1273z"/>
      <path id="104" class="fil56" d="M3484 5772l0 1267 -566 0 0 -1267 566 0zm4 -9l-574 0 0 1285 574 0 0 -1285z"/>
      <path id="105" class="fil57" d="M3487 5766l0 1279 -572 0 0 -1279 572 0zm4 -10l-580 0 0 1298 580 0 0 -1298z"/>
      <path id="106" class="fil57" d="M3490 5759l0 1292 -577 0 0 -1292 577 0zm4 -9l-586 0 0 1310 586 0 0 -1310z"/>
      <path id="107" class="fil57" d="M3493 5753l0 1304 -583 0 0 -1304 583 0zm4 -9l-591 0 0 1322 591 0 0 -1322z"/>
      <path id="108" class="fil57" d="M3495 5747l0 1316 -588 0 0 -1316 588 0zm4 -9l-596 0 0 1334 596 0 0 -1334z"/>
      <path id="109" class="fil58" d="M3498 5741l0 1328 -594 0 0 -1328 594 0zm4 -9l-602 0 0 1347 602 0 0 -1347z"/>
      <path id="110" class="fil58" d="M3501 5735l0 1341 -599 0 0 -1341 599 0zm4 -9l-608 0 0 1359 608 0 0 -1359z"/>
      <path id="111" class="fil58" d="M3504 5729l0 1353 -605 0 0 -1353 605 0zm4 -10l-613 0 0 1372 613 0 0 -1372z"/>
      <path id="112" class="fil58" d="M3506 5723l0 1365 -610 0 0 -1365 610 0zm4 -10l-618 0 0 1384 618 0 0 -1384z"/>
      <path id="113" class="fil59" d="M3509 5716l0 1378 -616 0 0 -1378 616 0zm4 -9l-624 0 0 1396 624 0 0 -1396z"/>
      <path id="114" class="fil59" d="M3512 5710l0 1390 -621 0 0 -1390 621 0zm4 -9l-630 0 0 1408 630 0 0 -1408z"/>
      <path id="115" class="fil60" d="M3515 5704l0 1402 -627 0 0 -1402 627 0zm4 -9l-635 0 0 1420 635 0 0 -1420z"/>
      <path id="116" class="fil61" d="M3517 5698l0 1414 -632 0 0 -1414 632 0zm4 -9l-640 0 0 1433 640 0 0 -1433z"/>
      <path id="117" class="fil61" d="M3520 5692l0 1427 -638 0 0 -1427 638 0zm4 -9l-646 0 0 1445 646 0 0 -1445z"/>
      <path id="118" class="fil61" d="M3523 5686l0 1439 -643 0 0 -1439 643 0zm4 -10l-652 0 0 1458 652 0 0 -1458z"/>
      <path id="119" class="fil61" d="M3526 5680l0 1451 -649 0 0 -1451 649 0zm4 -10l-657 0 0 1470 657 0 0 -1470z"/>
      <path id="120" class="fil62" d="M3528 5673l0 1464 -654 0 0 -1464 654 0zm4 -9l-662 0 0 1482 662 0 0 -1482z"/>
      <path id="121" class="fil62" d="M3531 5667l0 1476 -660 0 0 -1476 660 0zm4 -9l-668 0 0 1494 668 0 0 -1494z"/>
      <path id="122" class="fil62" d="M3534 5661l0 1488 -665 0 0 -1488 665 0zm4 -9l-674 0 0 1507 674 0 0 -1507z"/>
      <path id="123" class="fil62" d="M3537 5655l0 1500 -671 0 0 -1500 671 0zm4 -9l-679 0 0 1519 679 0 0 -1519z"/>
      <path id="124" class="fil63" d="M3539 5649l0 1513 -676 0 0 -1513 676 0zm4 -9l-684 0 0 1531 684 0 0 -1531z"/>
      <path id="125" class="fil63" d="M3542 5643l0 1525 -682 0 0 -1525 682 0zm4 -10l-690 0 0 1544 690 0 0 -1544z"/>
      <path id="126" class="fil64" d="M3545 5636l0 1538 -687 0 0 -1538 687 0zm4 -9l-696 0 0 1556 696 0 0 -1556z"/>
      <path id="127" class="fil65" d="M3548 5630l0 1550 -693 0 0 -1550 693 0zm4 -9l-701 0 0 1568 701 0 0 -1568z"/>
      <path id="128" class="fil65" d="M3550 5624l0 1562 -698 0 0 -1562 698 0zm4 -9l-706 0 0 1580 706 0 0 -1580z"/>
      <path id="129" class="fil66" d="M3553 5618l0 1574 -704 0 0 -1574 704 0zm4 -9l-712 0 0 1593 712 0 0 -1593z"/>
      <path id="130" class="fil66" d="M3556 5612l0 1587 -709 0 0 -1587 709 0zm4 -9l-718 0 0 1605 718 0 0 -1605z"/>
      <path id="131" class="fil67" d="M3559 5606l0 1599 -715 0 0 -1599 715 0zm4 -10l-723 0 0 1618 723 0 0 -1618z"/>
      <path id="132" class="fil68" d="M3561 5600l0 1611 -720 0 0 -1611 720 0zm4 -10l-728 0 0 1630 728 0 0 -1630z"/>
      <path id="133" class="fil68" d="M3564 5593l0 1624 -726 0 0 -1624 726 0zm4 -9l-734 0 0 1642 734 0 0 -1642z"/>
      <path id="134" class="fil69" d="M3567 5587l0 1636 -731 0 0 -1636 731 0zm4 -9l-740 0 0 1654 740 0 0 -1654z"/>
      <path id="135" class="fil69" d="M3570 5581l0 1648 -737 0 0 -1648 737 0zm4 -9l-745 0 0 1666 745 0 0 -1666z"/>
      <path id="136" class="fil69" d="M3572 5575l0 1660 -742 0 0 -1660 742 0zm4 -9l-750 0 0 1679 750 0 0 -1679z"/>
      <path id="137" class="fil69" d="M3575 5569l0 1673 -748 0 0 -1673 748 0zm4 -9l-756 0 0 1691 756 0 0 -1691z"/>
      <path id="138" class="fil70" d="M3578 5563l0 1685 -753 0 0 -1685 753 0zm4 -10l-762 0 0 1704 762 0 0 -1704z"/>
      <path id="139" class="fil70" d="M3581 5557l0 1697 -759 0 0 -1697 759 0zm4 -10l-767 0 0 1716 767 0 0 -1716z"/>
      <path id="140" class="fil70" d="M3583 5550l0 1710 -764 0 0 -1710 764 0zm4 -9l-772 0 0 1728 772 0 0 -1728z"/>
      <path id="141" class="fil70" d="M3586 5544l0 1722 -770 0 0 -1722 770 0zm4 -9l-778 0 0 1740 778 0 0 -1740z"/>
      <path id="142" class="fil71" d="M3589 5538l0 1734 -775 0 0 -1734 775 0zm4 -9l-784 0 0 1753 784 0 0 -1753z"/>
      <path id="143" class="fil72" d="M3592 5532l0 1746 -781 0 0 -1746 781 0zm4 -9l-789 0 0 1765 789 0 0 -1765z"/>
      <path id="144" class="fil72" d="M3594 5526l0 1759 -786 0 0 -1759 786 0zm4 -9l-794 0 0 1777 794 0 0 -1777z"/>
      <path id="145" class="fil73" d="M3597 5520l0 1771 -792 0 0 -1771 792 0zm4 -10l-800 0 0 1790 800 0 0 -1790z"/>
      <path id="146" class="fil73" d="M3600 5513l0 1784 -797 0 0 -1784 797 0zm4 -9l-806 0 0 1802 806 0 0 -1802z"/>
      <path id="147" class="fil73" d="M3603 5507l0 1796 -803 0 0 -1796 803 0zm4 -9l-811 0 0 1814 811 0 0 -1814z"/>
      <path id="148" class="fil73" d="M3605 5501l0 1808 -808 0 0 -1808 808 0zm4 -9l-816 0 0 1826 816 0 0 -1826z"/>
      <path id="149" class="fil74" d="M3608 5495l0 1820 -814 0 0 -1820 814 0zm4 -9l-822 0 0 1839 822 0 0 -1839z"/>
      <path id="150" class="fil74" d="M3611 5489l0 1833 -819 0 0 -1833 819 0zm4 -9l-828 0 0 1851 828 0 0 -1851z"/>
      <path id="151" class="fil74" d="M3614 5483l0 1845 -825 0 0 -1845 825 0zm4 -9l-833 0 0 1863 833 0 0 -1863z"/>
      <path id="152" class="fil74" d="M3616 5477l0 1857 -830 0 0 -1857 830 0zm4 -10l-838 0 0 1876 838 0 0 -1876z"/>
      <path id="153" class="fil75" d="M3619 5470l0 1870 -836 0 0 -1870 836 0zm4 -9l-844 0 0 1888 844 0 0 -1888z"/>
      <path id="154" class="fil75" d="M3622 5464l0 1882 -841 0 0 -1882 841 0zm4 -9l-850 0 0 1900 850 0 0 -1900z"/>
      <path id="155" class="fil76" d="M3625 5458l0 1894 -847 0 0 -1894 847 0zm4 -9l-855 0 0 1912 855 0 0 -1912z"/>
      <path id="156" class="fil77" d="M3627 5452l0 1906 -852 0 0 -1906 852 0zm4 -9l-860 0 0 1925 860 0 0 -1925z"/>
      <path id="157" class="fil78" d="M3630 5446l0 1919 -858 0 0 -1919 858 0zm4 -9l-866 0 0 1937 866 0 0 -1937z"/>
      <path id="158" class="fil78" d="M3633 5440l0 1931 -863 0 0 -1931 863 0zm4 -10l-872 0 0 1950 872 0 0 -1950z"/>
      <path id="159" class="fil78" d="M3636 5434l0 1943 -869 0 0 -1943 869 0zm4 -10l-877 0 0 1962 877 0 0 -1962z"/>
      <path id="160" class="fil79" d="M3638 5427l0 1956 -874 0 0 -1956 874 0zm4 -9l-882 0 0 1974 882 0 0 -1974z"/>
      <path id="161" class="fil80" d="M3641 5421l0 1968 -880 0 0 -1968 880 0zm4 -9l-888 0 0 1986 888 0 0 -1986z"/>
      <path id="162" class="fil80" d="M3644 5415l0 1980 -885 0 0 -1980 885 0zm4 -9l-894 0 0 1999 894 0 0 -1999z"/>
      <path id="163" class="fil80" d="M3647 5409l0 1992 -891 0 0 -1992 891 0zm4 -9l-899 0 0 2011 899 0 0 -2011z"/>
      <path id="164" class="fil81" d="M3649 5403l0 2005 -896 0 0 -2005 896 0zm4 -9l-904 0 0 2023 904 0 0 -2023z"/>
      <path id="165" class="fil81" d="M3652 5397l0 2017 -902 0 0 -2017 902 0zm4 -10l-910 0 0 2036 910 0 0 -2036z"/>
      <path id="166" class="fil81" d="M3655 5390l0 2030 -907 0 0 -2030 907 0zm4 -9l-916 0 0 2048 916 0 0 -2048z"/>
      <path id="167" class="fil82" d="M3658 5384l0 2042 -913 0 0 -2042 913 0zm4 -9l-921 0 0 2060 921 0 0 -2060z"/>
      <path id="168" class="fil82" d="M3660 5378l0 2054 -918 0 0 -2054 918 0zm4 -9l-926 0 0 2072 926 0 0 -2072z"/>
      <path id="169" class="fil82" d="M3663 5372l0 2066 -924 0 0 -2066 924 0zm4 -9l-932 0 0 2085 932 0 0 -2085z"/>
      <path id="170" class="fil82" d="M3666 5366l0 2079 -929 0 0 -2079 929 0zm4 -9l-938 0 0 2097 938 0 0 -2097z"/>
      <path id="171" class="fil83" d="M3669 5360l0 2091 -935 0 0 -2091 935 0zm4 -9l-943 0 0 2109 943 0 0 -2109z"/>
      <path id="172" class="fil84" d="M3671 5354l0 2103 -940 0 0 -2103 940 0zm4 -10l-948 0 0 2122 948 0 0 -2122z"/>
      <path id="173" class="fil84" d="M3674 5347l0 2116 -946 0 0 -2116 946 0zm4 -9l-954 0 0 2134 954 0 0 -2134z"/>
      <path id="174" class="fil84" d="M3677 5341l0 2128 -951 0 0 -2128 951 0zm4 -9l-960 0 0 2146 960 0 0 -2146z"/>
      <path id="175" class="fil85" d="M3680 5335l0 2140 -957 0 0 -2140 957 0zm4 -9l-965 0 0 2158 965 0 0 -2158z"/>
      <path id="176" class="fil85" d="M3682 5329l0 2152 -962 0 0 -2152 962 0zm4 -9l-970 0 0 2171 970 0 0 -2171z"/>
      <path id="177" class="fil85" d="M3685 5323l0 2165 -968 0 0 -2165 968 0zm4 -9l-976 0 0 2183 976 0 0 -2183z"/>
      <path id="178" class="fil86" d="M3688 5317l0 2177 -973 0 0 -2177 973 0zm4 -10l-982 0 0 2196 982 0 0 -2196z"/>
      <path id="179" class="fil86" d="M3691 5311l0 2189 -979 0 0 -2189 979 0zm4 -10l-987 0 0 2208 987 0 0 -2208z"/>
      <path id="180" class="fil86" d="M3693 5304l0 2202 -984 0 0 -2202 984 0zm4 -9l-992 0 0 2220 992 0 0 -2220z"/>
      <path id="181" class="fil86" d="M3696 5298l0 2214 -990 0 0 -2214 990 0zm4 -9l-998 0 0 2232 998 0 0 -2232z"/>
      <path id="182" class="fil87" d="M3699 5292l0 2226 -995 0 0 -2226 995 0zm4 -9l-1004 0 0 2245 1004 0 0 -2245z"/>
      <path id="183" class="fil87" d="M3702 5286l0 2238 -1001 0 0 -2238 1001 0zm4 -9l-1009 0 0 2257 1009 0 0 -2257z"/>
      <path id="184" class="fil88" d="M3704 5280l0 2251 -1006 0 0 -2251 1006 0zm4 -9l-1014 0 0 2269 1014 0 0 -2269z"/>
      <path id="185" class="fil89" d="M3707 5274l0 2263 -1012 0 0 -2263 1012 0zm4 -10l-1020 0 0 2282 1020 0 0 -2282z"/>
      <path id="186" class="fil90" d="M3710 5267l0 2276 -1017 0 0 -2276 1017 0zm4 -9l-1026 0 0 2294 1026 0 0 -2294z"/>
      <path id="187" class="fil90" d="M3712 5261l0 2288 -1022 0 0 -2288 1022 0zm5 -9l-1031 0 0 2306 1031 0 0 -2306z"/>
      <path id="188" class="fil90" d="M3715 5255l0 2300 -1028 0 0 -2300 1028 0zm4 -9l-1036 0 0 2318 1036 0 0 -2318z"/>
      <path id="189" class="fil91" d="M3718 5249l0 2312 -1034 0 0 -2312 1034 0zm4 -9l-1042 0 0 2331 1042 0 0 -2331z"/>
      <path id="190" class="fil92" d="M3721 5243l0 2325 -1039 0 0 -2325 1039 0zm4 -9l-1048 0 0 2343 1048 0 0 -2343z"/>
      <path id="191" class="fil92" d="M3723 5237l0 2337 -1044 0 0 -2337 1044 0zm5 -9l-1053 0 0 2355 1053 0 0 -2355z"/>
      <path id="192" class="fil92" d="M3726 5231l0 2349 -1050 0 0 -2349 1050 0zm4 -10l-1058 0 0 2368 1058 0 0 -2368z"/>
      <path id="193" class="fil93" d="M3729 5224l0 2362 -1056 0 0 -2362 1056 0zm4 -9l-1064 0 0 2380 1064 0 0 -2380z"/>
      <path id="194" class="fil93" d="M3732 5218l0 2374 -1061 0 0 -2374 1061 0zm4 -9l-1069 0 0 2392 1069 0 0 -2392z"/>
      <path id="195" class="fil93" d="M3734 5212l0 2386 -1066 0 0 -2386 1066 0zm5 -9l-1075 0 0 2404 1075 0 0 -2404z"/>
      <path id="196" class="fil94" d="M3737 5206l0 2398 -1072 0 0 -2398 1072 0zm4 -9l-1080 0 0 2417 1080 0 0 -2417z"/>
      <path id="197" class="fil94" d="M3740 5200l0 2411 -1078 0 0 -2411 1078 0zm4 -9l-1086 0 0 2429 1086 0 0 -2429z"/>
      <path id="198" class="fil94" d="M3743 5194l0 2423 -1083 0 0 -2423 1083 0zm4 -10l-1091 0 0 2442 1091 0 0 -2442z"/>
      <path id="199" class="fil94" d="M3745 5188l0 2435 -1088 0 0 -2435 1088 0zm5 -10l-1097 0 0 2454 1097 0 0 -2454z"/>
      <path id="200" class="fil95" d="M3748 5181l0 2448 -1094 0 0 -2448 1094 0zm4 -9l-1102 0 0 2466 1102 0 0 -2466z"/>
      <path id="201" class="fil96" d="M3751 5175l0 2460 -1100 0 0 -2460 1100 0zm4 -9l-1108 0 0 2478 1108 0 0 -2478z"/>
      <path id="202" class="fil96" d="M3754 5169l0 2472 -1105 0 0 -2472 1105 0zm4 -9l-1113 0 0 2491 1113 0 0 -2491z"/>
      <path id="203" class="fil96" d="M3756 5163l0 2484 -1110 0 0 -2484 1110 0zm5 -9l-1119 0 0 2503 1119 0 0 -2503z"/>
      <path id="204" class="fil97" d="M3759 5157l0 2497 -1116 0 0 -2497 1116 0zm4 -9l-1124 0 0 2515 1124 0 0 -2515z"/>
      <path id="205" class="fil97" d="M3762 5151l0 2509 -1122 0 0 -2509 1122 0zm4 -10l-1130 0 0 2528 1130 0 0 -2528z"/>
      <path id="206" class="fil97" d="M3765 5144l0 2522 -1127 0 0 -2522 1127 0zm4 -9l-1135 0 0 2540 1135 0 0 -2540z"/>
      <path id="207" class="fil98" d="M3767 5138l0 2534 -1132 0 0 -2534 1132 0zm5 -9l-1141 0 0 2552 1141 0 0 -2552z"/>
      <path id="208" class="fil98" d="M3770 5132l0 2546 -1138 0 0 -2546 1138 0zm4 -9l-1146 0 0 2564 1146 0 0 -2564z"/>
      <path id="209" class="fil98" d="M3773 5126l0 2558 -1144 0 0 -2558 1144 0zm4 -9l-1152 0 0 2577 1152 0 0 -2577z"/>
      <path id="210" class="fil98" d="M3776 5120l0 2570 -1149 0 0 -2570 1149 0zm4 -9l-1157 0 0 2589 1157 0 0 -2589z"/>
      <path id="211" class="fil99" d="M3778 5114l0 2583 -1154 0 0 -2583 1154 0zm5 -9l-1163 0 0 2601 1163 0 0 -2601z"/>
      <path id="212" class="fil99" d="M3781 5108l0 2595 -1160 0 0 -2595 1160 0zm4 -10l-1168 0 0 2614 1168 0 0 -2614z"/>
      <path id="213" class="fil100" d="M3784 5101l0 2608 -1166 0 0 -2608 1166 0zm4 -9l-1174 0 0 2626 1174 0 0 -2626z"/>
      <path id="214" class="fil101" d="M3787 5095l0 2620 -1171 0 0 -2620 1171 0zm4 -9l-1179 0 0 2638 1179 0 0 -2638z"/>
      <path id="215" class="fil102" d="M3789 5089l0 2632 -1176 0 0 -2632 1176 0zm5 -9l-1185 0 0 2650 1185 0 0 -2650z"/>
      <path id="216" class="fil102" d="M3792 5083l0 2644 -1182 0 0 -2644 1182 0zm4 -9l-1190 0 0 2663 1190 0 0 -2663z"/>
      <path id="217" class="fil102" d="M3795 5077l0 2657 -1188 0 0 -2657 1188 0zm4 -9l-1196 0 0 2675 1196 0 0 -2675z"/>
      <path id="218" class="fil103" d="M3798 5071l0 2669 -1193 0 0 -2669 1193 0zm4 -10l-1201 0 0 2688 1201 0 0 -2688z"/>
      <path id="219" class="fil104" d="M3800 5065l0 2681 -1198 0 0 -2681 1198 0zm5 -10l-1207 0 0 2700 1207 0 0 -2700z"/>
      <path id="220" class="fil104" d="M3803 5058l0 2694 -1204 0 0 -2694 1204 0zm4 -9l-1212 0 0 2712 1212 0 0 -2712z"/>
      <path id="221" class="fil104" d="M3806 5052l0 2706 -1210 0 0 -2706 1210 0zm4 -9l-1218 0 0 2724 1218 0 0 -2724z"/>
      <path id="222" class="fil105" d="M3809 5046l0 2718 -1215 0 0 -2718 1215 0zm4 -9l-1223 0 0 2737 1223 0 0 -2737z"/>
      <path id="223" class="fil105" d="M3811 5040l0 2730 -1220 0 0 -2730 1220 0zm5 -9l-1229 0 0 2749 1229 0 0 -2749z"/>
      <path id="224" class="fil105" d="M3814 5034l0 2743 -1226 0 0 -2743 1226 0zm4 -9l-1234 0 0 2761 1234 0 0 -2761z"/>
      <path id="225" class="fil106" d="M3817 5028l0 2755 -1232 0 0 -2755 1232 0zm4 -10l-1240 0 0 2774 1240 0 0 -2774z"/>
      <path id="226" class="fil107" d="M3820 5021l0 2768 -1237 0 0 -2768 1237 0zm4 -9l-1245 0 0 2786 1245 0 0 -2786z"/>
      <path id="227" class="fil107" d="M3822 5015l0 2780 -1242 0 0 -2780 1242 0zm5 -9l-1251 0 0 2798 1251 0 0 -2798z"/>
      <path id="228" class="fil107" d="M3825 5009l0 2792 -1248 0 0 -2792 1248 0zm4 -9l-1256 0 0 2810 1256 0 0 -2810z"/>
      <path id="229" class="fil108" d="M3828 5003l0 2804 -1254 0 0 -2804 1254 0zm4 -9l-1262 0 0 2823 1262 0 0 -2823z"/>
      <path id="230" class="fil109" d="M3831 4997l0 2816 -1259 0 0 -2816 1259 0zm4 -9l-1267 0 0 2835 1267 0 0 -2835z"/>
      <path id="231" class="fil109" d="M3833 4991l0 2829 -1264 0 0 -2829 1264 0zm5 -9l-1273 0 0 2847 1273 0 0 -2847z"/>
      <path id="232" class="fil109" d="M3836 4985l0 2841 -1270 0 0 -2841 1270 0zm4 -10l-1278 0 0 2860 1278 0 0 -2860z"/>
      <path id="233" class="fil110" d="M3839 4978l0 2854 -1276 0 0 -2854 1276 0zm4 -9l-1284 0 0 2872 1284 0 0 -2872z"/>
      <path id="234" class="fil110" d="M3842 4972l0 2866 -1281 0 0 -2866 1281 0zm4 -9l-1289 0 0 2884 1289 0 0 -2884z"/>
      <path id="235" class="fil110" d="M3844 4966l0 2878 -1286 0 0 -2878 1286 0zm5 -9l-1295 0 0 2896 1295 0 0 -2896z"/>
      <path id="236" class="fil111" d="M3847 4960l0 2890 -1292 0 0 -2890 1292 0zm4 -9l-1300 0 0 2909 1300 0 0 -2909z"/>
      <path id="237" class="fil111" d="M3850 4954l0 2903 -1298 0 0 -2903 1298 0zm4 -9l-1306 0 0 2921 1306 0 0 -2921z"/>
      <path id="238" class="fil111" d="M3853 4948l0 2915 -1303 0 0 -2915 1303 0zm4 -10l-1311 0 0 2934 1311 0 0 -2934z"/>
      <path id="239" class="fil111" d="M3855 4942l0 2927 -1308 0 0 -2927 1308 0zm5 -10l-1317 0 0 2946 1317 0 0 -2946z"/>
      <path id="240" class="fil112" d="M3858 4935l0 2940 -1314 0 0 -2940 1314 0zm4 -9l-1322 0 0 2958 1322 0 0 -2958z"/>
      <path id="241" class="fil112" d="M3861 4929l0 2952 -1320 0 0 -2952 1320 0zm4 -9l-1328 0 0 2970 1328 0 0 -2970z"/>
      <path id="242" class="fil113" d="M3864 4923l0 2964 -1325 0 0 -2964 1325 0zm4 -9l-1333 0 0 2983 1333 0 0 -2983z"/>
      <path id="243" class="fil113" d="M3866 4917l0 2976 -1330 0 0 -2976 1330 0zm5 -9l-1339 0 0 2995 1339 0 0 -2995z"/>
      <path id="244" class="fil114" d="M3869 4911l0 2989 -1336 0 0 -2989 1336 0zm4 -9l-1344 0 0 3007 1344 0 0 -3007z"/>
      <path id="245" class="fil114" d="M3872 4905l0 3001 -1342 0 0 -3001 1342 0zm4 -10l-1350 0 0 3020 1350 0 0 -3020z"/>
      <path id="246" class="fil114" d="M3875 4898l0 3014 -1347 0 0 -3014 1347 0zm4 -9l-1355 0 0 3032 1355 0 0 -3032z"/>
      <path id="247" class="fil115" d="M3877 4892l0 3026 -1352 0 0 -3026 1352 0zm5 -9l-1361 0 0 3044 1361 0 0 -3044z"/>
      <path id="248" class="fil116" d="M3880 4886l0 3038 -1358 0 0 -3038 1358 0zm4 -9l-1366 0 0 3056 1366 0 0 -3056z"/>
      <path id="249" class="fil116" d="M3883 4880l0 3050 -1364 0 0 -3050 1364 0zm4 -9l-1372 0 0 3069 1372 0 0 -3069z"/>
      <path id="250" class="fil116" d="M3886 4874l0 3062 -1369 0 0 -3062 1369 0zm4 -9l-1377 0 0 3081 1377 0 0 -3081z"/>
      <path id="251" class="fil117" d="M3888 4868l0 3075 -1374 0 0 -3075 1374 0zm5 -9l-1383 0 0 3093 1383 0 0 -3093z"/>
      <path id="252" class="fil117" d="M3891 4862l0 3087 -1380 0 0 -3087 1380 0zm4 -10l-1388 0 0 3106 1388 0 0 -3106z"/>
      <path id="253" class="fil117" d="M3894 4855l0 3100 -1386 0 0 -3100 1386 0zm4 -9l-1394 0 0 3118 1394 0 0 -3118z"/>
      <path id="254" class="fil118" d="M3897 4849l0 3112 -1391 0 0 -3112 1391 0zm4 -9l-1399 0 0 3130 1399 0 0 -3130z"/>
      <path id="255" class="fil11" d="M3899 4843l0 3124 -1396 0 0 -3124 1396 0zm5 -9l-1405 0 0 3142 1405 0 0 -3142z"/>
      <path id="256" class="fil11" d="M3902 4837l0 3136 -1402 0 0 -3136 1402 0zm3 -6l-1408 0 0 3149 1408 0 0 -3149z"/>
     </g>
    </g>
    <path class="fil119" d="M3192 5336l229 -422 -275 -88c0,0 -178,-21 -267,-45 -89,-24 -385,-105 -385,-105l38 172 660 488z"/>
    <polygon class="fil119" points="3472,4936 3728,5309 3837,5082 3802,4846 3544,4934 "/>
    <path class="fil119" d="M3721 5731l-102 -332c0,0 25,-22 27,-66 2,-43 11,-120 11,-120l71 96 96 -214 13 -13 -4 190 -65 284 -47 175z"/>
    <path class="fil120" d="M3275 5928l40 -503 175 -4 129 -22 102 332c0,0 -162,590 -162,582 0,-9 -284,-385 -284,-385z"/>
    <path class="fil120" d="M3230 5281c0,0 13,50 33,74 20,24 40,51 40,51l12 19 151 -6 153 -20 11 -17 27 -169 -182 -269 -74 -28 -173 356 2 9z"/>
    <path class="fil9" d="M3839 5093l306 118c234,331 468,662 703,993 -139,93 -284,178 -441,247l-247 -270 -72 175c20,134 59,200 -49,234l-177 46c-75,-377 -3,-883 -23,-1543z"/>
    <path class="fil10" d="M3345 5430c-8,0 -16,0 -24,0l-8 0c-29,0 -68,-93 -89,-148l13 -16c26,70 65,141 77,144l7 0c260,1 291,-19 295,-23 18,-20 26,-130 28,-184l20 20c-1,15 -5,146 -33,177 -7,8 -27,30 -286,30z"/>
    <path class="fil121" d="M3555 6293c-94,-111 -770,-1082 -1049,-1467l4 33c2,4 1037,1475 1050,1472 14,-3 262,-958 282,-1075l-7 -76c-76,442 -254,1016 -280,1113z"/>
    <path class="fil121" d="M3589 6426c-21,-5 -1072,-1395 -1075,-1399l1 35c2,4 1057,1404 1078,1404l4 -1c14,-1 248,-819 265,-922l-7 -74c-89,435 -246,902 -266,957z"/>
    <path class="fil10" d="M4871 6188l-692 -1017 -323 -124 -30 42 319 122 669 1016c19,-13 38,-26 57,-39zm-464 263c-102,-128 -198,-267 -261,-396l-13 24c49,106 126,262 226,393l1 0 1 0 1 -1 0 0 1 0 1 -1 1 0 0 0 1 -1 1 0 1 0 0 -1 37 -16 1 0 0 0 1 -1z"/>
    <polygon class="fil122" points="3197,5356 2497,4826 2502,4814 3190,5326 3415,4896 3432,4905 "/>
    <path class="fil122" d="M3856 5065l-26 -216 -50 23 33 229c-47,98 -77,162 -90,192 -36,-45 -170,-265 -257,-383l-25 2c1,1 278,410 286,410l3 -1 7 -2 0 -7c3,-12 119,-247 119,-247z"/>
    <polygon class="fil10" points="3633,5391 3614,5396 3714,5761 3724,5715 "/>
    <path class="fil10" d="M3966 6607c98,-271 317,-742 321,-785 3,-25 -78,-45 -132,-58 -71,-17 -110,-28 -114,-51 -5,-26 38,-86 103,-174 29,-39 57,-77 64,-94 1,-2 5,-26 -137,-160 -75,-70 -165,-150 -166,-150l25 -1c1,0 80,66 155,137 157,147 146,172 142,182 -9,19 -36,55 -67,98 -41,55 -103,139 -100,159 2,11 63,26 100,35 78,19 163,40 147,79 -24,62 -252,610 -320,778l-21 5z"/>
    <g>
     <path class="fil10" d="M2564 5530l-59 -679 57 69c0,0 27,930 78,1740l24 4 -78 -886c45,-76 28,-175 -22,-248z"/>
     <polygon class="fil10" points="3842,5255 3876,6630 3841,6638 3815,5333 "/>
     <path class="fil10" d="M3859 5093c1,67 14,740 37,1532l-33 8c-21,-758 -30,-1411 -27,-1527 0,-11 12,-24 12,-26l11 13z"/>
     <path class="fil10" d="M2603 6653l-30 -187c-32,-75 -447,-837 -466,-896 -14,-39 68,-89 195,-159 49,-28 111,-63 118,-75 -6,-24 -154,-113 -242,-167 -117,-70 -165,-101 -171,-116 -5,-12 -12,-28 223,-159 112,-62 227,-122 228,-122l10 17c-207,106 -425,230 -442,258 12,15 92,63 162,105 196,119 260,163 251,189 -6,18 -50,44 -128,87 -73,41 -195,109 -185,136 19,58 461,882 466,890l0 1 1 2 29 200 -19 -4z"/>
     <polygon class="fil10" points="2642,6660 2570,5810 2597,5761 2681,6667 "/>
    </g>
    <path class="fil123" d="M3990 5300c19,273 14,225 15,228l-107 5c0,-3 5,46 -15,-225 -5,-64 -13,-138 -32,-201l-17 -205c116,72 145,248 156,398z"/>
    <path class="fil10" d="M4158 6093c46,122 131,204 182,388 -17,7 -35,14 -52,21l-127 -366 -3 -43z"/>
    <path class="fil124" d="M1985 5875l-136 -512 -484 345 594 201 26 -34zm-1766 91c551,220 1104,177 1524,372 7,-41 30,-139 100,-200 89,-79 106,-101 186,-101 80,0 147,13 147,13l58 75c0,0 151,201 200,358 11,36 24,86 37,143 31,7 62,15 94,21l93 14 -154 -1852c0,0 -274,-92 -466,-140 -191,-48 -275,-30 -289,-30l-1530 1327z"/>
    <path class="fil125" d="M1749 6328l3 15c221,123 460,218 712,281 -38,-99 -100,-278 -148,-362 -50,-88 -123,-206 -123,-206 0,0 -120,-72 -247,0 -127,72 -153,111 -170,147 -17,36 -27,125 -27,125z"/>
    <path class="fil119" d="M2492 4820l783 1108 40 -503c0,0 -34,-24 -52,-70 -17,-46 -35,-83 -35,-83l-36 64 -700 -516z"/>
    <path class="fil126" d="M2605 5650c12,130 -62,242 -169,253 -112,10 -217,-95 -229,-236 -12,-141 73,-254 187,-253 107,1 200,107 211,236z"/>
    <path class="fil10" d="M2263 6123l-63 -36c3,-55 -21,-96 -32,-105l-854 -235 -234 -40 -1 -1 286 2 822 222 6 3c3,2 78,72 70,190z"/>
    <path class="fil10" d="M1964 5926c-40,-142 -110,-324 -166,-512 -217,205 -272,231 -421,336l-71 -4c230,-156 326,-223 529,-447l190 638 -61 -11z"/>
    <polygon class="fil10" points="3287,5931 3263,5915 3304,5419 3323,5421 "/>
    <path class="fil127" d="M1731 6331c6,-118 85,-232 187,-283 110,-56 228,-48 280,-12 68,47 235,331 281,488 12,38 22,75 31,111 -25,-6 -49,-12 -74,-18 -6,-24 -13,-49 -21,-75 -50,-169 -203,-447 -245,-476 -40,-28 -146,-41 -239,11 -50,28 -157,124 -149,282 -17,-9 -34,-19 -51,-28z"/>
    <path class="fil123" d="M2467 4656l25 123c-51,30 -74,169 -74,305 0,126 5,245 10,334 -36,-11 -73,-8 -107,7 -5,-91 -13,-212 -10,-341 9,-312 116,-410 156,-428z"/>
    <path class="fil10" d="M2392 5427l1 0c101,1 188,100 199,224 10,124 -59,229 -158,238 -4,1 -9,1 -14,1 -101,0 -189,-99 -200,-224 -6,-73 15,-141 58,-187 31,-33 71,-52 114,-52zm28 490l0 0c6,0 11,-1 17,-1 114,-11 194,-128 182,-267 -12,-138 -111,-247 -225,-249l-2 0c-51,0 -98,22 -134,61 -48,51 -72,127 -65,207 12,140 112,249 227,249z"/>
    <path class="fil125" d="M1749 6328l3 15c221,123 460,218 712,281 -38,-99 -100,-278 -148,-362 -50,-88 -123,-206 -123,-206 0,0 -120,-72 -247,0 -127,72 -153,111 -170,147 -17,36 -27,125 -27,125z"/>
    <path class="fil10" d="M1731 6331c6,-118 85,-232 187,-283 110,-56 228,-48 280,-12 68,47 235,331 281,488 12,38 22,75 30,111 -24,-6 -48,-12 -73,-18 -6,-24 -13,-49 -21,-75 -50,-169 -203,-447 -245,-476 -40,-28 -146,-41 -239,11 -50,28 -157,124 -149,282 -17,-9 -34,-19 -51,-28z"/>
    <path class="fil124" d="M826 5440c68,113 239,403 354,460 258,126 177,131 367,259 57,38 147,45 231,68 -21,44 -31,87 -35,111 -420,-195 -973,-152 -1524,-372l607 -526z"/>
    <path class="fil10" d="M243 5872c55,-42 136,-100 229,-167 73,-78 1289,-1109 1315,-1116 60,-14 254,43 395,82 243,66 341,99 342,99l70 755 -33 -47 -57 -669c-41,-8 -141,-30 -333,-85 -182,-52 -305,-89 -368,-77 -21,9 -1268,1062 -1318,1121 -107,77 -217,156 -266,198 186,60 1038,230 1550,319l9 72c-4,-1 -416,-72 -798,-154 -785,-169 -808,-178 -823,-201 -28,-41 23,-80 86,-130z"/>
    <path class="fil10" d="M1731 6331c6,-118 85,-232 187,-283 110,-56 228,-48 280,-12 68,47 235,331 281,488 12,38 22,75 30,111 -24,-6 -48,-12 -73,-18 -6,-24 -13,-49 -21,-75 -50,-169 -203,-447 -245,-476 -40,-28 -146,-41 -239,11 -50,28 -157,124 -149,282 -17,-9 -34,-19 -51,-28z"/>
    <path class="fil128" d="M2207 3051c0,0 -27,10 -74,-3 -45,-13 -74,-30 -87,-65 -13,-34 -30,-194 -41,-296 -12,-102 -28,-362 -28,-362l-119 -95 -136 -73c0,0 -85,-421 -111,-550 -27,-130 -52,-164 17,-259 68,-95 291,-267 326,-298 35,-31 80,-62 80,-62 0,0 -91,-228 -57,-305 34,-77 306,-286 482,-346 177,-60 395,-134 640,-89 244,45 478,107 589,162 111,54 79,61 172,65 264,88 718,310 844,536 17,30 36,77 31,121 -8,74 -101,139 -181,134 0,0 -177,61 -393,23 -217,-37 -639,-178 -804,-237 -165,-60 -313,-103 -432,-61 -119,42 -168,69 -275,176 -21,20 -30,32 -55,25 -24,-7 -89,-32 -89,-32 0,0 59,138 76,211 17,74 42,275 15,343 -44,111 -127,194 -220,269 -92,75 -159,150 -159,150 0,0 30,63 22,99 -15,68 -40,172 -42,230 -3,90 -5,208 2,295 6,87 10,236 10,241 -1,6 -3,53 -3,53z"/>
    <path class="fil125" d="M1989 2324c0,0 -268,-256 -393,-182 -125,75 -205,129 -161,339 43,209 80,363 178,460 97,98 163,138 220,145 56,7 160,13 160,13 0,0 52,562 84,705 31,143 42,331 113,424 71,93 520,326 677,418 128,75 538,256 647,276 109,19 245,-71 320,-96 75,-25 417,-259 483,-354 67,-94 -18,-743 -23,-826 -5,-82 49,-394 65,-485 16,-91 119,-610 147,-681 27,-71 191,-669 223,-759 33,-90 82,-214 59,-264 -24,-51 -150,-218 -150,-218 0,0 -46,20 -127,38 -105,22 -268,39 -464,-2 -346,-74 -589,-190 -742,-243 -197,-69 -342,-87 -472,-6 -130,80 -180,148 -215,157 -35,9 -76,-12 -76,-12l-37 -18c0,0 128,267 113,418 -15,152 -16,197 -110,282 -94,85 -165,166 -192,189 -27,22 -92,88 -92,88 0,0 32,67 26,100 -5,34 -45,164 -51,225 -6,61 -8,277 -5,331 3,54 7,136 9,174 2,37 10,81 0,90 -11,9 -94,1 -107,-7 -13,-7 -36,-21 -45,-50 -10,-29 -50,-296 -51,-348 -1,-51 -9,-159 -9,-198 1,-40 -2,-123 -2,-123z"/>
    <path class="fil129" d="M4530 2599c0,0 75,-81 145,-58 48,15 55,75 50,141 -4,65 -62,267 -93,331 -31,64 -204,246 -204,246 0,0 16,-100 19,-143 2,-42 48,-276 53,-298 4,-23 30,-219 30,-219z"/>
    <path class="fil128" d="M2640 2145c0,0 16,-73 63,-159 48,-86 112,-174 159,-226 48,-52 99,-108 177,-126 78,-18 148,-17 291,40 143,58 190,114 236,150 46,36 125,109 137,132 11,22 4,70 -32,104 -35,34 -45,47 -69,43 -23,-5 -251,-118 -330,-146 -80,-28 -204,-79 -275,-68 -71,12 -151,67 -188,100 -37,33 -103,111 -125,130 -22,18 -44,26 -44,26z"/>
    <path class="fil128" d="M3986 2340c0,0 172,-56 201,-62 28,-6 82,-15 100,-8 19,6 92,55 121,107 29,52 54,110 54,110l30 -91c0,0 2,-235 -23,-277 -26,-44 -48,-54 -118,-52 -69,2 -228,42 -228,42l-112 184 -25 47z"/>
    <path class="fil130" d="M3863 2815c6,-60 19,-108 58,-181 39,-73 85,-107 127,-129 42,-21 55,-30 97,-15 41,14 90,44 105,102 15,58 30,135 7,224 -23,89 -72,174 -114,204 -43,30 -86,67 -136,53 -51,-14 -78,-25 -98,-64 -21,-38 -40,-73 -44,-106 -4,-33 -2,-88 -2,-88z"/>
    <path class="fil130" d="M2815 2512c8,-58 32,-157 68,-211 36,-54 97,-100 127,-118 31,-17 53,-25 93,-21 41,4 106,19 140,54 50,51 81,78 103,220 10,63 14,177 -19,247 -33,70 -101,159 -150,184 -49,25 -142,35 -187,17 -45,-18 -110,-63 -133,-117 -22,-54 -38,-104 -42,-158 -4,-54 -4,-66 0,-97z"/>
    <path class="fil131" d="M3261 3402c6,2 31,19 103,30 71,11 204,53 237,70 34,18 45,22 78,24 34,2 165,-33 198,-57 33,-24 96,-67 98,-78 2,-11 -35,-115 -35,-115 0,0 -22,105 -177,126 -151,19 -207,-21 -298,-48 -93,-29 -239,-7 -242,15 -2,15 38,33 38,33z"/>
    <path class="fil131" d="M4124 2103c0,0 129,-30 164,-34 36,-5 138,8 138,8l40 35c0,0 -21,-54 -94,-70 -74,-15 -171,10 -168,-5 3,-15 20,-100 20,-100l-100 166z"/>
    <path class="fil131" d="M4087 3055c32,-16 104,-70 137,-146 59,-133 66,-278 4,-354 -61,-77 -140,-87 -207,-34 -68,52 -138,170 -149,257 -11,88 4,173 25,215 21,41 56,72 107,79 17,2 64,-8 83,-17zm-288 1640c37,-100 -120,-384 -120,-384l120 -9 155 -34c0,0 -24,-91 -37,-169 -13,-79 7,-171 7,-171l33 -6 27 -40 27 -98 -314 -59c0,0 -124,-17 -200,-122 -46,-63 -151,-197 -151,-197 0,0 249,105 369,122 48,7 240,-110 258,-146 18,-36 3,-29 -10,-67 -10,-30 -113,-209 -155,-282l-23 -14c0,0 -26,-36 -22,-87 7,-95 49,-239 72,-295 35,-88 156,-292 156,-292 0,0 39,-21 123,-39 90,-20 183,-56 223,-4 25,32 115,95 127,206 8,70 22,185 13,314 -34,487 -53,1291 -120,1620 2,49 -130,119 -216,182 -87,63 -204,159 -304,215 -100,56 -376,92 -376,92 0,0 302,-135 338,-236z"/>
    <path class="fil131" d="M4462 1289l170 -55c0,0 179,161 155,275 -25,114 -18,131 -72,280 -53,148 -213,627 -211,620 2,-6 0,-214 -24,-262 -25,-48 -31,-72 -54,-70 -22,2 -164,-15 -213,-2 -49,13 -102,37 -102,37 0,0 124,-87 258,-210 95,-87 200,-237 186,-323 -28,-176 -93,-290 -93,-290z"/>
    <path class="fil131" d="M4506 2661l54 -83 93 -37 58 83c0,0 -60,321 -67,330 -7,8 -171,244 -171,244l-62 51 95 -588z"/>
    <path class="fil131" d="M1983 2827l0 56c0,0 -289,-67 -367,-203 -78,-135 -98,-299 42,-332 56,-13 158,46 207,116 49,70 95,188 95,188 0,0 -97,20 -120,42 -22,21 -44,26 -17,48 26,21 160,85 160,85z"/>
    <path class="fil131" d="M2003 3106c0,0 -157,16 -234,-37 -76,-52 -137,-108 -137,-108 0,0 146,82 261,25 87,-42 96,-233 96,-233l10 143 4 210z"/>
    <path class="fil131" d="M1946 2309c0,0 63,842 87,1131 23,288 120,711 173,780 54,69 694,459 891,547 196,89 400,161 440,158 40,-3 187,-33 253,-76 67,-42 201,-118 201,-118l-17 -59c0,0 -267,141 -427,125 -160,-16 -1197,-586 -1260,-655 -135,-146 -238,-1138 -238,-1138 0,0 -50,-315 -53,-403 -3,-89 -10,-266 -10,-266l-40 -26z"/>
    <path class="fil132" d="M1986 2335c0,0 -80,-111 -137,-131 -56,-20 -116,-52 -116,-52 0,0 -17,-109 -47,-204 -30,-95 -80,-370 -87,-413 -7,-42 -7,-131 -7,-131 0,0 -33,-187 354,17 387,203 487,495 487,508 0,13 -207,193 -207,193 0,0 20,75 20,105 0,29 -57,220 -57,361 0,141 31,445 7,455 -23,10 -80,-3 -80,-3l-60 -23c0,0 -30,-148 -43,-298 -14,-151 -27,-384 -27,-384z"/>
    <path class="fil132" d="M2300 1021c0,0 220,262 200,472 -20,209 -264,324 -264,324l140 167c0,0 140,-111 180,-183 40,-72 80,-138 60,-256 -20,-118 -16,-167 -50,-242 -33,-76 -66,-161 -73,-171 -7,-10 -50,-72 -107,-95 -56,-23 -86,-16 -86,-16z"/>
    <path class="fil131" d="M2352 2012c0,0 209,-147 264,-241 56,-94 52,-279 18,-378 -33,-98 -69,-177 -69,-177 0,0 36,37 80,9 45,-28 214,-237 423,-202 209,35 711,312 922,344 332,50 525,-52 525,-52l-46 -30c0,0 -362,60 -834,-132 -408,-166 -538,-182 -623,-173 -169,18 -269,94 -309,136 -40,41 -82,70 -82,70l-60 0 -51 -31c0,0 20,50 42,109 22,59 82,230 62,346 -20,115 -22,144 -58,191 -35,47 -204,211 -204,211z"/>
    <path class="fil132" d="M3707 1969c0,0 3,44 -32,82 -35,37 -61,67 -80,57 -18,-10 -125,-61 -190,-92 -65,-31 -177,-75 -233,-93 -57,-18 -107,-30 -144,-33 -36,-3 -100,11 -140,39 -40,28 -135,110 -158,140 -24,29 -57,57 -57,57l-27 20 -5 -15 19 -51 26 -51c0,0 5,20 40,-3 36,-23 128,-151 256,-180 231,-53 590,218 620,186 30,-31 23,-155 23,-155l65 62 17 30z"/>
    <path class="fil132" d="M4481 2215c0,0 -2,98 -42,81 -40,-18 -104,-66 -147,-70 -42,-4 -284,76 -284,76l-17 43c0,0 257,-99 288,-82 14,8 73,32 111,81 45,58 69,142 69,142l45 -103 -23 -168z"/>
    <path class="fil126" d="M2841 2538c-7,187 91,335 219,330 128,-5 237,-161 244,-349 6,-187 -92,-335 -220,-329 -128,5 -237,161 -243,348z"/>
    <path class="fil126" d="M3888 2760c-28,149 24,278 118,290 93,12 192,-99 221,-247 29,-148 -24,-278 -117,-290 -94,-12 -193,99 -222,247z"/>
    <path class="fil133" d="M3555 4927c0,0 231,-87 373,-153 143,-66 427,-337 427,-337 52,-708 134,-1167 111,-1931l-31 -57c10,253 -99,1958 -187,1962 -35,44 -435,459 -698,450 -262,-8 -814,-292 -814,-292l645 327 174 31z"/>
    <path class="fil133" d="M4492 2391l-5 -112c0,0 247,-698 227,-788 -20,-90 -160,-225 -160,-225l77 -19c0,0 143,136 148,205 5,69 -31,205 -68,336 -37,131 -205,634 -205,634l-14 -31z"/>
    <path class="fil133" d="M4532 2621c0,0 58,-77 100,-75 42,1 85,52 83,91 -1,40 -53,263 -53,263 0,0 17,-281 -27,-282 -43,-2 -108,74 -108,74l5 -71z"/>
    <path class="fil133" d="M1984 2324l-3 43c0,0 -164,-136 -310,-144 -174,-10 -214,272 -214,272 0,0 -43,-331 171,-354 213,-23 356,183 356,183z"/>
    <path class="fil128" d="M2226 2136c0,0 30,37 22,77 -8,39 -42,165 -48,234 -7,69 -14,277 -5,371 8,93 16,147 15,178 -2,31 15,48 -9,51 -23,3 -72,5 -85,-2 -13,-6 -60,-29 -60,-29l-5 -28c0,0 32,23 58,25 27,1 69,-12 69,-61 0,-49 -17,-416 -5,-513 12,-97 57,-213 53,-233 -3,-19 0,-70 0,-70z"/>
    <path class="fil128" d="M2201 3047c0,0 -51,-157 -70,-266 -12,110 20,266 20,266l50 0z"/>
    <path class="fil128" d="M2176 3040c0,0 -65,-73 -80,-142 -10,57 7,141 7,141l73 1z"/>
    <path class="fil134" d="M4487 2601l-14 -56c-1,-2 -58,-218 -196,-268 -25,-9 -193,43 -292,78l-7 -18c44,-16 266,-93 306,-78 106,38 166,162 192,232 8,-123 11,-338 -31,-385 -57,-63 -263,-7 -331,18l13 -25c3,-1 255,-93 333,-6 65,73 34,435 32,451l-5 57z"/>
    <path class="fil134" d="M1700 2165c-1,-1 -182,-671 -132,-793 57,-141 308,-455 350,-474 18,-8 140,63 280,95 69,15 133,33 135,33 0,0 -245,-26 -307,1 -49,23 -344,266 -383,372 -30,83 54,504 115,750l-58 16z"/>
    <path class="fil10" d="M1775 3092c-129,-45 -266,-148 -347,-423 -63,-218 -26,-441 97,-516 224,-137 451,137 463,150l6 67c-3,-3 -260,-265 -429,-161 -82,50 -132,244 -73,444 56,195 152,337 303,396 114,45 214,32 215,32l11 42c0,0 -112,16 -246,-31z"/>
    <path class="fil10" d="M4463 3182c185,-221 264,-491 196,-589 -26,-38 -117,57 -139,84l-4 -55c0,0 61,-120 136,-116l1 0c21,1 51,9 73,45 55,84 45,197 -67,429 -48,97 -124,183 -184,244l-12 -42z"/>
    <path class="fil135" d="M3688 3539c-89,-4 -239,-94 -249,-98 0,0 160,69 246,73 89,4 272,-98 278,-140 4,-26 -67,-149 -120,-238 -57,-96 -99,-164 -100,-185 -1,-24 28,-145 89,-311 103,-277 353,-638 353,-638 -2,5 -274,481 -334,645 -60,163 -76,282 -74,305 0,17 48,96 90,167 78,130 137,227 133,257 -8,61 -224,167 -312,163z"/>
    <path class="fil10" d="M1971 2822c-5,-1 -122,-33 -162,-83 -9,-11 -8,-22 -5,-29 14,-35 107,-56 144,-63 -11,-33 -51,-136 -123,-208 -59,-59 -112,-89 -157,-82 -45,6 -84,39 -84,39 1,-2 27,-47 82,-55 51,-7 109,21 173,84 90,90 130,221 132,227l3 10 -11 2c-53,9 -132,32 -140,53 -1,3 -2,5 2,10 35,45 146,95 146,95z"/>
    <path class="fil10" d="M1909 2559c-1,-1 -136,-157 -196,-110 -33,26 -46,93 -46,93 0,-3 -4,-79 38,-108 73,-52 196,94 200,98l4 27z"/>
    <path class="fil136" d="M3104 2173c146,3 255,166 244,363 -10,190 -129,344 -269,352 -5,0 -10,1 -15,0 -70,-1 -134,-39 -180,-106 -47,-69 -70,-160 -64,-256 10,-190 129,-344 269,-352 5,-1 10,-1 15,-1zm264 363c12,-207 -106,-377 -263,-380 -6,0 -11,0 -17,0 -150,9 -277,171 -288,370 -6,99 18,193 67,265 49,73 119,114 196,115 5,0 11,0 16,0l0 0c151,-9 278,-171 289,-370z"/>
    <path class="fil136" d="M4143 2497c100,20 148,164 107,320 -38,146 -140,253 -237,249 -7,0 -13,-1 -19,-2 -48,-10 -86,-48 -106,-108 -21,-61 -22,-136 -2,-213 39,-146 141,-253 238,-249 6,1 13,1 19,3zm122 323c43,-163 -10,-314 -119,-336 -7,-2 -14,-3 -21,-3 -104,-4 -213,107 -253,259 -21,79 -21,157 1,220 22,64 64,106 117,117 7,1 15,2 22,2l0 0c104,5 213,-107 253,-259z"/>
    <path class="fil134" d="M3519 1793c118,87 183,166 184,183 0,25 -22,64 -53,93 -22,21 -44,32 -55,25 -4,-2 -389,-203 -565,-211 -125,-6 -242,116 -320,196 -23,25 -49,52 -63,60 5,-28 47,-124 119,-236 53,-83 158,-228 258,-260 34,-10 72,-15 111,-13 152,7 306,105 384,163zm-795 298c75,-78 187,-199 305,-193 163,8 535,195 558,209 4,2 9,4 14,4 22,1 51,-14 64,-26 42,-38 66,-76 65,-110 0,-30 -111,-149 -211,-223 -80,-59 -228,-149 -383,-157 -42,-2 -81,3 -116,14 -144,46 -314,336 -369,460 -28,63 -20,87 -14,90 10,6 43,-22 87,-68z"/>
    <path class="fil137" d="M2927 2536c6,107 70,191 145,188 74,-4 130,-94 125,-201 -5,-107 -70,-190 -144,-187 -75,4 -131,93 -126,200z"/>
    <path class="fil138" d="M2950 2523c5,94 59,168 120,166 61,-3 106,-81 101,-175 -5,-95 -59,-169 -120,-166 -61,2 -106,80 -101,175z"/>
    <path class="fil139" d="M3902 2776c-18,83 18,159 81,169 63,11 128,-48 146,-132 18,-83 -18,-159 -81,-169 -63,-11 -128,48 -146,132z"/>
    <path class="fil140" d="M3928 2763c-20,69 5,137 56,150 50,13 108,-32 128,-102 20,-70 -5,-137 -56,-151 -51,-13 -108,33 -128,103z"/>
    <path class="fil10" d="M4491 2903c0,0 68,-180 118,-174 33,4 16,111 16,111 0,0 36,-124 -9,-128 -68,-7 -120,141 -120,141l-5 50z"/>
    <path class="fil134" d="M2161 3062c-42,-2 -96,-15 -113,-52 -25,-54 -67,-451 -70,-627 -3,-158 9,-274 8,-287 6,220 8,220 17,380 13,219 52,506 64,527 20,35 106,42 130,38 5,-18 0,-108 -5,-187 -6,-86 -12,-182 -11,-261 2,-173 41,-323 55,-359 7,-18 -7,-65 -21,-95l-3 -6 6 -5c3,-3 295,-284 323,-322 173,-223 -46,-653 -48,-658l-24 -46 39 35c1,0 78,66 123,29 5,-5 11,-11 19,-17 70,-63 234,-209 435,-181 122,16 313,84 498,149 375,126 1045,314 1129,-36 -1,1 25,119 -26,164 -96,85 -343,113 -697,30 -116,-28 -271,-82 -421,-135 -183,-64 -366,-136 -486,-153 -191,-26 -350,116 -418,176 -8,7 -15,13 -21,18 -36,30 -84,12 -116,-7 50,109 183,446 30,644 -28,37 -274,274 -315,312 9,21 23,84 12,111 -8,22 -51,168 -53,352 -1,78 5,175 11,260 11,177 10,202 -7,206 -7,2 -24,4 -44,3z"/>
    <path class="fil135" d="M3350 3430c0,0 -165,-15 -157,-59 9,-44 179,-98 179,-98 0,0 -131,78 -135,98 -5,20 113,59 113,59z"/>
    <path class="fil126" d="M3073 2394c5,53 40,94 77,90 37,-3 62,-49 57,-103 -5,-53 -39,-93 -76,-90 -37,4 -63,50 -58,103z"/>
    <path class="fil126" d="M4042 2664c-12,40 -1,79 27,88 27,8 60,-17 73,-57 13,-40 1,-79 -26,-88 -28,-8 -61,17 -74,57z"/>
    <path class="fil126" d="M2556 3500c0,0 76,158 99,174 22,16 169,104 500,187 331,82 539,84 620,83 80,-1 164,-14 164,-14l36 -15 38 -120c0,0 -497,-121 -667,-139 -171,-19 -430,-62 -543,-86 -114,-24 -247,-70 -247,-70z"/>
    <path class="fil141" d="M2545 3493l176 526c0,0 50,33 96,57 46,24 409,208 666,226 256,18 301,-6 343,-12 43,-5 126,-30 126,-30 0,0 -44,-146 -39,-214 4,-68 13,-116 13,-116 0,0 -197,37 -606,-32 -408,-70 -615,-197 -615,-197l-53 -33 -85 -153 -22 -22z"/>
    <path class="fil142" d="M2986 4162c0,0 46,-59 140,-70 93,-11 140,2 193,20 53,17 91,39 91,39 0,0 71,-19 160,20 89,39 129,76 140,92 11,15 25,35 25,35 0,0 -114,41 -376,-13 -262,-55 -373,-123 -373,-123z"/>
    <path class="fil143" d="M4382 3456c0,-1 1,-8 2,-18 -1,13 -2,20 -2,18z"/>
    <path class="fil131" d="M2430 3453c0,0 200,488 246,554 47,66 207,144 307,177 100,33 247,69 247,69 0,0 -337,-131 -413,-180 -77,-50 -97,-63 -97,-63 0,0 -90,-223 -120,-321 -30,-98 -54,-184 -54,-184l-116 -52z"/>
    <path class="fil131" d="M3710 3727l-9 -63c0,0 -178,-50 -329,-68 -151,-17 -422,-34 -620,-75 -174,-36 -371,-108 -371,-108 0,0 98,69 153,89 56,20 160,50 256,66 95,15 253,41 369,59 116,17 225,39 316,54 91,16 235,46 235,46z"/>
    <path class="fil131" d="M2469 3378c0,0 -45,16 -62,45 -12,22 27,143 27,143 0,0 -65,-105 -78,-164 -7,-29 113,-24 113,-24z"/>
    <path class="fil144" d="M4012 3793c0,0 -15,111 -38,122 -22,11 -157,57 -498,9 -340,-48 -460,-96 -538,-131 -78,-35 -151,-50 -186,-72 -36,-22 -74,-31 -89,-51 -16,-19 -103,-157 -103,-157l205 50c0,0 3,86 73,138 39,29 219,157 637,216 178,25 374,3 426,-13 42,-13 58,-124 58,-124l53 13z"/>
    <path class="fil131" d="M3799 4409l-45 -55c0,0 -127,27 -322,-7 -187,-33 -374,-105 -374,-105 0,0 158,152 527,176 125,8 214,-9 214,-9z"/>
    <path class="fil133" d="M2676 3892l44 118c0,0 223,187 573,262 351,76 447,40 537,23 90,-16 179,-45 179,-45l91 -35c0,0 19,-10 27,-9 20,1 28,20 -70,63 -140,62 -377,167 -807,53 -430,-115 -557,-259 -570,-302 -14,-43 -77,-318 -77,-318l73 190z"/>
    <path class="fil145" d="M3234 4100c-157,-25 -237,64 -240,68l-16 -11c1,-1 89,-101 259,-74 171,28 258,130 261,134 0,0 -102,-90 -264,-117z"/>
    <path class="fil145" d="M3721 4300c-1,-1 -29,-76 -150,-118 -106,-38 -160,-23 -161,-23l-6 -17c3,-1 59,-13 174,24 116,37 159,124 161,128l-18 6z"/>
    <path class="fil127" d="M3942 4266c-1,0 -28,-80 -34,-173 -4,-71 9,-159 9,-160l20 3c0,1 -13,87 -9,156 5,91 32,169 33,170l-19 4z"/>
    <path class="fil146" d="M3434 3926c-344,-53 -747,-196 -796,-259 -33,-42 -84,-150 -89,-164l18 2c15,38 81,139 94,155 30,39 426,203 775,249 374,50 520,13 528,2 16,-24 36,-120 36,-121l20 4c-1,4 -24,97 -38,124 -17,35 -254,54 -548,8z"/>
    <path class="fil10" d="M4071 3812c-27,-8 -205,-43 -486,-100 -127,-26 -269,-48 -417,-71 -159,-25 -289,-45 -430,-75 -120,-25 -218,-61 -218,-61 0,0 -74,-42 -120,-78 0,0 107,62 334,111 119,25 269,49 428,74 147,24 295,54 436,82 163,32 442,91 479,102 69,21 113,3 113,3 -1,1 -48,35 -119,13z"/>
    <path class="fil10" d="M2718 4021c-34,-30 -163,-450 -188,-531l28 9c48,152 151,489 174,510 48,42 406,238 713,276 388,49 659,-72 662,-73 0,0 -260,151 -656,93 -394,-57 -685,-242 -733,-284z"/>
    <path class="fil135" d="M3335 3396c0,0 39,-5 85,3 47,8 120,41 120,41 0,0 -73,-53 -120,-62 -46,-10 -85,18 -85,18z"/>
    <path class="fil10" d="M4522 2515c5,-14 203,-730 258,-912 19,-65 19,-111 6,-179 -23,-125 -91,-224 -144,-223l-32 48c95,66 161,217 136,293 -23,70 -286,935 -291,949 18,172 -30,1630 -142,1932 1,59 -531,486 -784,474 -280,-13 -1210,-586 -1302,-691 -105,-119 -205,-1076 -205,-1076l-25 -244 -29 182c0,0 83,1038 208,1172 101,108 876,625 1327,715 235,47 884,-456 881,-515 55,-91 177,-1901 138,-1925z"/>
    <path class="fil132" d="M2493 1132c0,0 52,76 105,56 53,-20 168,-134 314,-192 164,-66 387,26 651,131 265,105 547,183 707,168 163,12 362,-32 361,-48l68 -82c95,-113 -189,46 -249,48 -637,23 -1258,-369 -1434,-340 -262,44 -362,247 -418,247 -56,0 -173,-107 -285,-138 -173,-48 -282,-26 -282,-26l9 33c0,0 218,-2 311,46 94,48 142,97 142,97z"/>
    <path class="fil132" d="M2210 1821c0,0 -30,-289 116,-620 -200,144 -317,452 -337,495 -20,43 221,125 221,125z"/>
    <path class="fil132" d="M2096 1722c0,-13 -20,-393 107,-596 -160,72 -264,517 -264,517l157 79z"/>
    <path class="fil132" d="M2169 1699c0,0 37,-187 234,-367 -107,285 -3,489 -3,489l-231 -122z"/>
    <path class="fil132" d="M2033 1666c0,0 -57,-367 66,-619 -220,118 -253,528 -253,528l187 91z"/>
    <path class="fil132" d="M1913 1539c0,0 -134,-263 83,-512 -150,56 -340,292 -340,292l257 220z"/>
    <path class="fil132" d="M2207 1000c0,0 -209,-249 -111,-337 97,-87 560,-371 1067,-362 507,8 587,118 587,118 0,0 -271,-197 -765,-175 -494,22 -667,122 -787,205 -120,83 -209,153 -214,227 -4,75 -27,329 -27,329l250 -5z"/>
    <path class="fil134" d="M4686 1245l-54 -11c18,-86 90,-141 31,-213 -314,-384 -1249,-740 -1640,-741 -614,-2 -948,317 -997,396 -31,48 -50,232 -17,337l-75 24c-15,-48 -37,-306 24,-403 27,-44 129,-154 314,-254 152,-82 406,-180 751,-179 420,1 1544,499 1696,840 36,79 13,132 -33,204z"/>
    <path class="fil129" d="M2447 4359l54 321c0,0 215,70 347,94 131,24 318,52 318,52l-719 -467z"/>
    <polygon class="fil127" points="2470,4397 2413,4371 2467,4656 2519,4671 "/>
    <path class="fil122" d="M3331 4844c-332,-33 -701,-139 -812,-172l0 -1 -52 -15 32 157 51 40 -26 -156c108,32 471,134 806,167l1 -20z"/>
    <g>
     <path class="fil147" d="M3576 6670c3,-1 7,-2 10,-2 15,0 26,5 33,9 -14,-3 -29,-5 -43,-7z"/>
     <path class="fil147" d="M4295 6725l3 -6 61 -21 17 -19 32 -8 27 7 27 33 0 6c-56,4 -111,7 -167,8z"/>
     <path class="fil148" d="M4410 6720c0,-11 2,-20 11,-22 11,-2 22,7 27,20 -12,1 -25,2 -38,2z"/>
     <path class="fil149" d="M4467 6707c-11,-23 -30,-39 -51,-42 -9,-2 -19,-1 -28,2 -19,7 -25,15 -29,21 -3,3 -4,4 -6,5 -13,4 -43,14 -55,19 -5,3 -10,7 -14,13l21 0c12,-5 40,-15 52,-19 7,-2 10,-7 13,-11 4,-4 8,-10 23,-15 7,-3 14,-3 21,-2 16,3 31,16 40,35 1,1 2,3 2,5l15 -1c-1,-4 -2,-7 -4,-10z"/>
     <path class="fil150" d="M3807 6057c19,-3 32,10 32,10 0,3 40,297 72,422l1 3c21,83 38,146 77,191l-10 10 -2 -2 -30 22 -1 -1 -4 3c-39,-47 -68,-114 -87,-200 -30,-133 -76,-438 -76,-442 0,0 8,-14 28,-16z"/>
     <path class="fil150" d="M4018 6721l4 -4 1 0 3 -3c4,3 8,5 12,8l-20 -1z"/>
     <path class="fil150" d="M3928 6715l1 -1c99,-44 116,-126 141,-250l1 -2c26,-126 48,-408 49,-411 0,0 9,-16 33,-13 25,4 29,20 29,20 -1,3 -31,293 -54,427 -18,108 -52,186 -104,236 -32,-2 -64,-4 -96,-6z"/>
     <path class="fil151" d="M3960 6699c0,0 -42,-58 -72,-156 -24,-77 -88,-468 -90,-484l9 -2c0,4 67,407 90,483 30,96 70,154 71,154l-8 5z"/>
     <path class="fil151" d="M3977 6718c71,-37 91,-125 114,-227l1 0c23,-104 54,-448 54,-451l13 0c0,3 -35,349 -58,453l0 0c-23,98 -42,184 -108,226l-16 -1z"/>
     <path class="fil149" d="M3562 6667c23,4 46,8 69,12 -4,-5 -11,-11 -27,-16 -2,-1 -5,-1 -7,-1 -12,-3 -24,-1 -35,5z"/>
     <path class="fil147" d="M4288 6734l10 -15 61 -21 17 -19 32 -8 27 7 27 33 0 39 -22 28 -32 13 -26 -10 -38 6 -39 2c0,0 22,-17 13,-37 -10,-20 -30,-18 -30,-18z"/>
     <path class="fil148" d="M4451 6726c3,18 -5,35 -17,37 -13,2 -19,-8 -22,-26 -3,-18 -4,-36 9,-39 13,-2 26,10 30,28z"/>
     <path class="fil149" d="M4467 6707c-11,-23 -30,-39 -51,-42 -9,-2 -19,-1 -28,2 -19,7 -25,15 -29,21 -3,3 -4,4 -6,5 -13,4 -43,14 -55,19 -10,5 -19,17 -21,32l15 -2c1,-8 6,-14 12,-17 11,-5 41,-15 53,-19 7,-2 10,-7 13,-11 4,-4 8,-10 23,-15 7,-3 14,-3 21,-2 16,3 31,16 40,35 5,10 5,23 0,35 -6,15 -18,28 -31,32 -8,3 -15,3 -22,2 -6,-1 -10,-3 -14,-5 -4,-2 -8,-4 -12,-3 -2,1 -10,2 -19,3 -11,2 -25,4 -36,6 -4,1 -7,1 -10,0 -2,0 -5,-1 -8,-3l-14 5c5,6 12,10 19,12 5,0 10,0 15,-1 12,-2 25,-4 36,-5 10,-2 16,-3 20,-3l3 1c4,2 10,5 18,7 9,1 19,0 29,-3 16,-6 31,-21 39,-39 7,-17 7,-34 0,-47z"/>
     <path class="fil150" d="M3807 6057c19,-3 32,10 32,10 0,3 40,297 72,422l1 3c21,83 38,146 77,191l-10 10 -2 -2 -30 22 -1 -1 -4 3c-39,-47 -68,-114 -87,-200 -30,-133 -76,-438 -76,-442 0,0 8,-14 28,-16z"/>
     <path class="fil150" d="M3987 6741l2 1 33 -25 1 0 3 -3c12,8 25,15 40,20 7,4 17,6 27,8 91,16 204,-9 206,-10 0,0 16,1 22,21 7,23 -6,32 -6,32 -7,2 -123,33 -234,14 -15,-3 -28,-6 -39,-11 -25,-9 -47,-22 -67,-39l12 -8z"/>
     <path class="fil150" d="M3707 6764l3 1 3 -16 -2 -20 1 1 -4 -9c61,9 165,18 221,-7 99,-44 116,-126 141,-250l1 -2c26,-126 48,-408 49,-411 0,0 9,-16 33,-13 25,4 29,20 29,20 -1,3 -31,293 -54,427 -25,150 -82,242 -172,282 -72,31 -184,21 -255,10l6 -13z"/>
     <path class="fil151" d="M3960 6699c0,0 -42,-58 -72,-156 -24,-77 -88,-468 -90,-484l9 -2c1,4 67,407 90,483 30,96 70,154 71,154l-8 5z"/>
     <path class="fil151" d="M4088 6776c-7,-2 -13,-3 -20,-5 -48,-14 -68,-32 -68,-33l6 -7 -3 4 3 -4c0,1 19,18 65,31 82,24 243,-7 244,-8l2 9c-6,2 -142,28 -229,13z"/>
     <path class="fil151" d="M3714 6752c-2,0 -3,0 -4,0l2 -9c2,0 158,30 264,-24 72,-38 92,-126 115,-228l1 0c23,-104 54,-448 54,-451l13 0c0,3 -35,349 -58,453l0 0c-24,105 -45,195 -121,234 -100,51 -241,30 -266,25z"/>
     <path class="fil147" d="M3531 6719c7,-26 29,-51 55,-51 26,0 40,14 40,14l5 7 53 16 21 12 7 27 -7 22 -12 14 -73 -4 -27 9 -33 -6 -23 -24 -9 -25 3 -11z"/>
     <path class="fil148" d="M3559 6723c-4,19 4,36 18,39 13,2 27,-11 31,-31 3,-19 -5,-36 -19,-38 -13,-3 -27,11 -30,30z"/>
     <path class="fil149" d="M3595 6675c1,0 3,1 5,1 15,5 19,10 23,15 3,3 6,8 13,10 13,3 43,12 55,16 9,3 17,17 14,33 -5,25 -16,27 -27,25 -12,-1 -26,-2 -36,-3 -10,-1 -18,-2 -20,-3 -4,0 -8,2 -12,4 -6,4 -15,9 -29,6 -3,0 -5,-1 -7,-1 -12,-4 -25,-16 -32,-30 -6,-13 -7,-25 -2,-36 11,-26 33,-41 55,-37zm-17 118c20,3 33,-4 39,-8l3 -2c4,1 11,1 20,2 11,1 24,3 36,4 23,3 37,-9 42,-36 5,-25 -8,-44 -23,-49 -12,-4 -42,-13 -55,-17 -2,0 -3,-2 -6,-5 -5,-5 -11,-13 -30,-19 -2,-1 -5,-1 -7,-1 -28,-5 -57,13 -70,45 -6,14 -5,31 3,47 8,18 24,32 40,37 3,1 6,1 8,2z"/>
     <path class="fil147" d="M3576 6670c3,-1 7,-2 10,-2 15,0 26,5 33,9 -14,-3 -29,-5 -43,-7z"/>
     <path class="fil147" d="M4295 6725l3 -6 61 -21 17 -19 32 -8 27 7 27 33 0 6c-56,4 -111,7 -167,8z"/>
     <path class="fil148" d="M4410 6720c0,-11 2,-20 11,-22 11,-2 22,7 27,20 -12,1 -25,2 -38,2z"/>
     <path class="fil123" d="M3762 6078c0,0 2,22 51,14 42,-8 40,-35 40,-35 -18,-111 -38,-378 48,-481 16,-19 34,-28 57,-29 24,-1 44,7 61,25 94,96 93,375 85,484 0,0 -4,23 42,27 46,4 53,-26 53,-26 3,-45 28,-406 -111,-549 -36,-37 -82,-56 -133,-54 -51,1 -95,23 -128,63 -128,154 -72,516 -65,561z"/>
     <path class="fil149" d="M4467 6707c-11,-23 -30,-39 -51,-42 -9,-2 -19,-1 -28,2 -19,7 -25,15 -29,21 -3,3 -4,4 -6,5 -13,4 -43,14 -55,19 -5,3 -10,7 -14,13l21 0c12,-5 40,-15 52,-19 7,-2 10,-7 13,-11 4,-4 8,-10 23,-15 7,-3 14,-3 21,-2 16,3 31,16 40,35 1,1 2,3 2,5l15 -1c-1,-4 -2,-7 -4,-10z"/>
     <path class="fil150" d="M3807 6057c19,-3 32,10 32,10 0,3 40,297 72,422l1 3c21,83 38,146 77,191l-10 10 -2 -2 -30 22 -1 -1 -4 3c-39,-47 -68,-114 -87,-200 -30,-133 -76,-438 -76,-442 0,0 8,-14 28,-16z"/>
     <path class="fil150" d="M4018 6721l4 -4 1 0 3 -3c4,3 8,5 12,8l-20 -1z"/>
     <path class="fil150" d="M3928 6715l1 -1c99,-44 116,-126 141,-250l1 -2c26,-126 48,-408 49,-411 0,0 9,-16 33,-13 25,4 29,20 29,20 -1,3 -31,293 -54,427 -18,108 -52,186 -104,236 -32,-2 -64,-4 -96,-6z"/>
     <path class="fil151" d="M3960 6699c0,0 -42,-58 -72,-156 -24,-77 -88,-468 -90,-484l9 -2c0,4 67,407 90,483 30,96 70,154 71,154l-8 5z"/>
     <path class="fil151" d="M3977 6718c71,-37 91,-125 114,-227l1 0c23,-104 54,-448 54,-451l13 0c0,3 -35,349 -58,453l0 0c-23,98 -42,184 -108,226l-16 -1z"/>
     <path class="fil149" d="M3562 6667c23,4 46,8 69,12 -4,-5 -11,-11 -27,-16 -2,-1 -5,-1 -7,-1 -12,-3 -24,-1 -35,5z"/>
     <path class="fil147" d="M4288 6734l10 -15 61 -21 17 -19 32 -8 27 7 27 33 0 39 -22 28 -32 13 -26 -10 -38 6 -39 2c0,0 22,-17 13,-37 -10,-20 -30,-18 -30,-18z"/>
     <path class="fil148" d="M4451 6726c3,18 -5,35 -17,37 -13,2 -19,-8 -22,-26 -3,-18 -4,-36 9,-39 13,-2 26,10 30,28z"/>
     <path class="fil123" d="M3762 6078c0,0 2,22 51,14 42,-8 40,-35 40,-35 -18,-111 -38,-378 48,-481 16,-19 34,-28 57,-29 24,-1 44,7 61,25 94,96 93,375 85,484 0,0 -4,23 42,27 46,4 53,-26 53,-26 3,-45 28,-406 -111,-549 -36,-37 -82,-56 -133,-54 -51,2 -95,23 -128,63 -128,154 -72,516 -65,561z"/>
     <path class="fil152" d="M4467 6707c-11,-23 -30,-39 -51,-42 -9,-2 -19,-1 -28,2 -19,7 -25,15 -29,21 -3,3 -4,4 -6,5 -13,4 -43,14 -55,19 -10,5 -19,17 -21,32l15 -2c1,-8 6,-14 12,-17 11,-5 41,-15 53,-19 7,-2 10,-7 13,-11 4,-4 8,-10 23,-15 7,-3 14,-3 21,-2 16,3 31,16 40,35 5,10 5,23 0,35 -6,15 -18,28 -31,32 -8,3 -15,3 -22,2 -6,-1 -10,-3 -14,-5 -4,-2 -8,-4 -12,-3 -2,1 -10,2 -19,3 -11,2 -25,4 -36,6 -4,1 -7,1 -10,0 -2,0 -5,-1 -8,-3l-14 5c5,6 12,10 19,12 5,0 10,0 15,-1 12,-2 25,-4 36,-5 10,-2 16,-3 20,-3l3 1c4,2 10,5 18,7 9,1 19,0 29,-3 16,-6 31,-21 39,-39 7,-17 7,-34 0,-47z"/>
     <path class="fil10" d="M3807 6057c19,-3 32,10 32,10 0,3 40,297 72,422l1 3c21,83 38,146 77,191l-10 10 -2 -2 -30 22 -1 -1 -4 3c-39,-47 -68,-114 -87,-200 -30,-133 -76,-438 -76,-442 0,0 8,-14 28,-16z"/>
     <path class="fil10" d="M3987 6741l2 1 33 -25 1 0 3 -3c12,8 25,15 40,20 7,4 17,6 27,8 91,16 204,-9 206,-10 0,0 16,1 22,21 7,23 -6,32 -6,32 -7,2 -123,33 -234,14 -15,-3 -28,-6 -39,-11 -25,-9 -47,-22 -67,-39l12 -8z"/>
     <path class="fil10" d="M3707 6764l3 1 3 -16 -2 -20 1 1 -4 -9c61,9 165,18 221,-7 99,-44 116,-126 141,-250l1 -2c26,-126 48,-408 49,-411 0,0 9,-16 33,-13 25,4 29,20 29,20 -1,3 -31,293 -54,427 -25,150 -82,242 -172,282 -72,31 -184,21 -255,10l6 -13z"/>
     <path class="fil153" d="M3960 6699c0,0 -42,-58 -72,-156 -24,-77 -88,-468 -90,-484l9 -2c1,4 67,407 90,483 30,96 70,154 71,154l-8 5z"/>
     <path class="fil153" d="M4088 6776c-7,-2 -13,-3 -20,-5 -48,-14 -68,-32 -68,-33l6 -7 -3 4 3 -4c0,1 19,18 65,31 82,24 243,-7 244,-8l2 9c-6,2 -142,28 -229,13z"/>
     <path class="fil153" d="M3714 6752c-2,0 -3,0 -4,0l2 -9c2,0 158,30 264,-24 72,-38 92,-126 115,-228l1 0c23,-104 54,-448 54,-451l13 0c0,3 -35,349 -58,453l0 0c-24,105 -45,195 -121,234 -100,51 -241,30 -266,25z"/>
     <path class="fil147" d="M3531 6719c7,-26 29,-51 55,-51 26,0 40,14 40,14l5 7 53 16 21 12 7 27 -7 22 -12 14 -73 -4 -27 9 -33 -6 -23 -24 -9 -25 3 -11z"/>
     <path class="fil148" d="M3559 6723c-4,19 4,36 18,39 13,2 27,-11 31,-31 3,-19 -5,-36 -19,-38 -13,-3 -27,11 -30,30z"/>
     <path class="fil152" d="M3595 6675c1,0 3,1 5,1 15,5 19,10 23,15 3,3 6,8 13,10 13,3 43,12 55,16 9,3 17,17 14,33 -5,25 -16,27 -27,25 -12,-1 -26,-2 -36,-3 -10,-1 -18,-2 -20,-3 -4,0 -8,2 -12,4 -6,4 -15,9 -29,6 -3,0 -5,-1 -7,-1 -12,-4 -25,-16 -32,-30 -6,-13 -7,-25 -2,-36 11,-26 33,-41 55,-37zm-17 118c20,3 33,-4 39,-8l3 -2c4,1 11,1 20,2 11,1 24,3 36,4 23,3 37,-9 42,-36 5,-25 -8,-44 -23,-49 -12,-4 -42,-13 -55,-17 -2,0 -3,-2 -6,-5 -5,-5 -11,-13 -30,-19 -2,-1 -5,-1 -7,-1 -28,-5 -57,13 -70,45 -6,14 -5,31 3,47 8,18 24,32 40,37 3,1 6,1 8,2z"/>
    </g>
   </g>
  </g>
 </g>
</svg>
